<svg width="33" height="33" viewBox="0 0 33 33" fill="none" xmlns="http://www.w3.org/2000/svg">
<g clip-path="url(#clip0_428_937)">
<path d="M29.2804 6.06512C29.1596 6.05267 29.0378 6.05267 28.917 6.06512H4.10156C3.94251 6.06757 3.78452 6.09142 3.63184 6.13602L16.4384 18.8894L29.2804 6.06512Z" fill="#206BA4"/>
<path d="M30.5921 7.29712L17.688 20.148C17.3559 20.4781 16.9067 20.6634 16.4384 20.6634C15.9701 20.6634 15.5209 20.4781 15.1888 20.148L2.39993 7.39461C2.36061 7.53911 2.33977 7.688 2.33789 7.83774V25.5631C2.33789 26.0332 2.52464 26.484 2.85705 26.8164C3.18947 27.1489 3.64032 27.3356 4.11042 27.3356H28.9259C29.396 27.3356 29.8468 27.1489 30.1793 26.8164C30.5117 26.484 30.6984 26.0332 30.6984 25.5631V7.83774C30.6914 7.65309 30.6555 7.47068 30.5921 7.29712ZM5.32461 25.5631H4.0927V24.2957L10.5359 17.9057L11.7855 19.1554L5.32461 25.5631ZM28.9082 25.5631H27.6674L21.2065 19.1554L22.4561 17.9057L28.8993 24.2957L28.9082 25.5631Z" fill="#206BA4"/>
</g>
<defs>
<clipPath id="clip0_428_937">
<rect width="31.9056" height="31.9056" fill="white" transform="translate(0.626953 0.747559)"/>
</clipPath>
</defs>
</svg>
