<svg width="37" height="37" viewBox="0 0 37 37" fill="none" xmlns="http://www.w3.org/2000/svg">
<path d="M30.7824 18.5213C30.7824 16.8527 29.4254 15.4958 27.7568 15.4958H26.2441V10.9575C26.2441 6.78681 22.8509 3.39368 18.6802 3.39368C14.5096 3.39368 11.1164 6.78681 11.1164 10.9575V15.4958H9.60365C7.93508 15.4958 6.57812 16.8527 6.57812 18.5213V30.6234C6.57812 32.292 7.93508 33.649 9.60365 33.649H27.7568C29.4254 33.649 30.7824 32.292 30.7824 30.6234V18.5213ZM14.1419 10.9575C14.1419 8.45539 16.1781 6.41921 18.6802 6.41921C21.1824 6.41921 23.2185 8.45539 23.2185 10.9575V15.4958H14.1419V10.9575Z" fill="#206BA4"/>
</svg>
