<svg width="100" height="113" viewBox="0 0 100 113" fill="none" xmlns="http://www.w3.org/2000/svg">
<path d="M32.8295 23.6101L34.6124 26.1994C35.3349 25.7062 35.8191 24.9366 35.9487 24.0743C36.0783 23.2121 35.8415 22.3348 35.2952 21.6533L32.8295 23.6101ZM25.2316 14.1272L23.5316 11.4832C22.7791 11.9625 22.2663 12.737 22.1202 13.614C21.9739 14.4913 22.2085 15.389 22.7655 16.0843L25.2316 14.1272ZM35.8686 7.35373L38.3343 5.39682C37.3273 4.13997 35.5292 3.84338 34.1686 4.70975L35.8686 7.35373ZM43.4661 16.8367L41.0004 18.7935C41.91 19.9291 43.4835 20.2951 44.8047 19.6789L43.4661 16.8367ZM52.1789 12.7725L53.5174 15.6147C54.6251 15.0981 55.3329 13.99 55.3329 12.7725H52.1789ZM52.1789 3.13901L52.1786 0.000125726C50.437 0.000157115 49.025 1.40547 49.025 3.13901H52.1789ZM65.7535 3.13889H68.9074C68.9074 2.30639 68.575 1.50802 67.9837 0.919349C67.392 0.330682 66.5899 0 65.7535 0V3.13889ZM65.7535 12.7725H62.5996C62.5996 13.9197 63.2285 14.9753 64.2396 15.5262L65.7535 12.7725ZM15.7698 44.0367L13.0501 45.6259C13.4891 46.3705 14.2171 46.9019 15.0623 47.0956C15.9076 47.2892 16.7954 47.1279 17.5177 46.6495L15.7698 44.0367ZM3.15396 35.6659L0.0551177 35.0818C-0.103463 35.9152 0.0834401 36.7768 0.573311 37.4705C1.06321 38.1645 1.81436 38.6316 2.65577 38.7656L3.15396 35.6659ZM5.97839 20.8268L6.86868 17.8157C6.01431 17.5655 5.09336 17.6864 4.33338 18.1487C3.57344 18.6111 3.04534 19.3717 2.87957 20.2427L5.97839 20.8268ZM28.3855 37.7681L29.5553 40.6828C30.8936 40.1511 31.6991 38.7844 31.513 37.3625L28.3855 37.7681ZM47.8003 42.0756L44.9725 40.6853L43.3084 44.038L46.9147 45.0879L47.8003 42.0756ZM96.7319 18.1921L99.8836 18.3076L100 15.1637L96.8407 15.0551L96.7319 18.1921ZM96.1803 33.1071L96.0714 36.2441L99.2163 36.3521L99.332 33.2226L96.1803 33.1071ZM16.9181 40.207C10.5951 45.7735 8.22583 53.3774 8.4936 61.2921C8.75884 69.1444 11.604 77.4502 15.8723 84.9653C20.1493 92.4958 25.9649 99.4274 32.4075 104.509C38.8055 109.556 46.1132 113 53.3329 113V106.722C48.0706 106.722 42.1166 104.157 36.3256 99.5894C30.5788 95.0562 25.2776 88.7675 21.3636 81.876C17.4407 74.9689 15.0201 67.6506 14.7977 61.0809C14.5779 54.5733 16.4993 48.9572 21.0977 44.909L16.9181 40.207ZM53.3329 113C60.5344 113 68.0294 109.574 74.6662 104.502C81.3536 99.3913 87.4773 92.3816 91.966 84.6662C100.786 69.506 104.006 50.0113 89.7478 37.4598L85.5685 42.1619C96.3231 51.6294 94.8619 67.1603 86.5071 81.5204C82.4085 88.5653 76.8216 94.9395 70.8244 99.5229C64.7767 104.145 58.6136 106.722 53.3329 106.722V113ZM89.7478 37.4598C87.9374 35.8662 86.5267 35.0378 84.9853 34.2625C83.4986 33.5145 82.1219 32.9175 79.8986 31.613L76.6945 37.0204C79.1524 38.463 80.8962 39.2396 82.1395 39.8651C83.3286 40.4631 84.258 41.0083 85.5685 42.1619L89.7478 37.4598ZM49.8677 39.3915C45.1689 37.8606 39.0749 36.3656 33.2057 36.031C27.4841 35.7046 21.2034 36.4343 16.9181 40.207L21.0977 44.909C23.4477 42.8402 27.5592 41.9968 32.8446 42.2984C37.9821 42.5916 43.51 43.9256 47.9047 45.3576L49.8677 39.3915ZM35.2952 21.6533L27.6977 12.1703L22.7655 16.0843L30.3634 25.5672L35.2952 21.6533ZM26.9316 16.7711L37.5683 9.99771L34.1686 4.70975L23.5316 11.4832L26.9316 16.7711ZM33.4025 9.31067L41.0004 18.7935L45.9322 14.8796L38.3343 5.39682L33.4025 9.31067ZM44.8047 19.6789L53.5174 15.6147L50.8404 9.93034L42.1276 13.9944L44.8047 19.6789ZM55.3329 12.7725V3.13901H49.025V12.7725H55.3329ZM52.1789 6.2779L65.7535 6.27778V0L52.1786 0.000125726L52.1789 6.2779ZM62.5996 3.13889V12.7725H68.9074V3.13889H62.5996ZM65.7535 12.7725C64.2396 15.5262 64.2383 15.5253 64.2383 15.5253L64.2371 15.5246L64.2349 15.5237L64.2317 15.5218C64.2298 15.5205 64.2289 15.5202 64.2289 15.5202C64.2289 15.5202 64.232 15.5215 64.2383 15.5253C64.2516 15.5328 64.2781 15.5482 64.3162 15.5708C64.3932 15.616 64.5181 15.691 64.6827 15.7961C65.0126 16.0071 65.498 16.3354 66.0724 16.7796C67.2299 17.6745 68.7043 19.0044 70.0107 20.7515L75.0709 17.0034C73.3381 14.6862 71.4189 12.9636 69.9423 11.8221C69.2001 11.2481 68.5583 10.8122 68.0903 10.5133C67.8562 10.3636 67.6645 10.2477 67.5244 10.1654C67.4544 10.1243 67.3973 10.0915 67.3541 10.067C67.3324 10.0548 67.3144 10.0447 67.2999 10.0366C67.2926 10.0326 67.2863 10.0291 67.2806 10.0261C67.2781 10.0246 67.2756 10.0232 67.2734 10.022L67.2702 10.0202L67.2687 10.0194C67.2687 10.0194 67.2671 10.0187 65.7535 12.7725ZM29.8452 33.4568C30.5469 30.968 31.7849 29.1163 32.849 27.8865C33.3801 27.2732 33.8595 26.8243 34.1901 26.5402C34.355 26.3984 34.4812 26.2992 34.5562 26.2421C34.5938 26.2135 34.6184 26.1956 34.6281 26.1884C34.6332 26.1849 34.6345 26.184 34.6319 26.1859C34.6319 26.1859 34.6285 26.1884 34.625 26.1906C34.625 26.1906 34.6215 26.1931 34.6196 26.1943L34.6162 26.1968L34.6143 26.1978C34.6143 26.1978 34.6124 26.1994 32.8295 23.6101C31.0462 21.0208 31.0443 21.0224 31.0443 21.0224L31.0421 21.0236L31.0377 21.0268C31.0345 21.029 31.0311 21.0315 31.0273 21.034C31.02 21.039 31.0115 21.045 31.0021 21.0516C30.9831 21.0651 30.9598 21.0814 30.9327 21.1009C30.8787 21.1398 30.809 21.191 30.7251 21.2547C30.5577 21.3821 30.3334 21.5601 30.0675 21.7886C29.5361 22.2453 28.8306 22.9104 28.0698 23.7896C26.5506 25.5449 24.7781 28.1929 23.7719 31.7608L29.8452 33.4568ZM15.7698 44.0367C18.4894 42.4475 18.4881 42.4453 18.4881 42.4453L18.4869 42.4431L18.4837 42.4378C18.4815 42.434 18.479 42.4299 18.4762 42.4252C18.4708 42.4161 18.4642 42.4051 18.4566 42.3926C18.4415 42.3675 18.4219 42.3358 18.3979 42.2975C18.3503 42.2215 18.2853 42.1198 18.203 41.9964C18.0384 41.7497 17.8037 41.4139 17.4978 41.0149C16.8878 40.2189 15.9842 39.1579 14.7785 38.0505C12.3742 35.8423 8.674 33.3661 3.65216 32.5666L2.65577 38.7656C6.10716 39.3149 8.71469 41.024 10.5001 42.6641C11.3895 43.4805 12.0509 44.2593 12.4824 44.8224C12.6975 45.1027 12.8523 45.3259 12.9476 45.4684C12.9949 45.5396 13.0274 45.5905 13.0444 45.6178C13.0529 45.6313 13.0586 45.6407 13.0586 45.6407C13.0586 45.6407 13.0586 45.6407 13.057 45.6382C13.057 45.6382 13.0555 45.6354 13.0542 45.6335L13.0523 45.63L13.051 45.6281C13.051 45.6281 13.0501 45.6259 15.7698 44.0367ZM6.25281 36.2501L9.07739 21.411L2.87957 20.2427L0.0551177 35.0818L6.25281 36.2501ZM5.97839 20.8268C5.088 23.838 5.08689 23.8377 5.08689 23.8377C5.08689 23.8377 5.08907 23.8383 5.09225 23.8395C5.09866 23.8414 5.10998 23.8446 5.12607 23.8496C5.15824 23.8593 5.20942 23.8747 5.27843 23.896C5.41651 23.9387 5.62562 24.0047 5.89601 24.0935C6.43722 24.2708 7.22129 24.5389 8.17063 24.8942C10.0769 25.6077 12.6104 26.6592 15.1655 28.0187C17.7397 29.3882 20.2162 31.0075 22.0915 32.8199C23.9804 34.6455 25.0313 36.4419 25.2581 38.1733L31.513 37.3625C31.0336 33.6979 28.9305 30.6786 26.4859 28.3162C24.0274 25.9401 20.9902 23.999 18.1393 22.4823C15.2689 20.9552 12.4657 19.7951 10.3913 19.0185C9.35021 18.6287 8.48319 18.3321 7.87069 18.1312C7.56413 18.0304 7.32064 17.9538 7.15065 17.9011C7.06549 17.8747 6.99863 17.8546 6.95132 17.8402C6.92766 17.8333 6.90874 17.8276 6.89486 17.8236C6.88792 17.8214 6.88256 17.8198 6.87815 17.8185C6.87594 17.8179 6.87247 17.8166 6.87247 17.8166L6.87026 17.8163C6.87026 17.8163 6.86868 17.8157 5.97839 20.8268ZM27.2157 34.853C23.1402 36.4729 19.873 38.0958 17.6123 39.3212C16.4813 39.9345 15.6001 40.449 14.9939 40.8159C14.6908 40.9992 14.4561 41.1458 14.2931 41.2491C14.2117 41.3009 14.148 41.3417 14.1029 41.3712C14.0802 41.3859 14.0619 41.3975 14.0486 41.4063C14.0417 41.411 14.0363 41.4145 14.0319 41.4176C14.0294 41.4189 14.0259 41.4214 14.0259 41.4214L14.0237 41.4227L14.0228 41.4233C14.0228 41.4233 14.0218 41.4239 15.7698 44.0367C17.5177 46.6495 17.5167 46.6502 17.5167 46.6502L17.5151 46.6511C17.5151 46.6511 17.5161 46.6505 17.5186 46.6489C17.5233 46.6458 17.5328 46.6395 17.5467 46.6307C17.5748 46.6125 17.6205 46.583 17.6836 46.5428C17.8104 46.4628 18.0068 46.3397 18.2702 46.1803C18.7975 45.8614 19.592 45.3965 20.6294 44.8343C22.7053 43.709 25.746 42.1973 29.5553 40.6828L27.2157 34.853ZM66.3878 46.664C69.2702 42.1041 72.3197 39.6825 75.7086 38.1212L73.059 32.4241C68.5145 34.5177 64.5506 37.7809 61.0484 43.3211L66.3878 46.664ZM46.9147 45.0879C50.8278 46.2274 55.3912 48.0602 58.2569 49.274L60.7271 43.4978C57.8131 42.2633 52.9699 40.3102 48.6859 39.0628L46.9147 45.0879ZM65.7046 19.7037C56.4752 23.9554 50.2115 30.1293 44.9725 40.6853L50.6281 43.4655C55.302 34.0488 60.5735 28.9851 68.3546 25.4008L65.7046 19.7037ZM96.8407 15.0551C85.0049 14.6486 74.6003 15.6059 65.7046 19.7037L68.3546 25.4008C75.9139 21.9185 85.1395 20.9348 96.6231 21.3291L96.8407 15.0551ZM99.332 33.2226L99.8836 18.3076L93.5801 18.0765L93.0285 32.9916L99.332 33.2226ZM75.7086 38.1212C79.8009 36.2363 85.2134 35.8712 96.0714 36.2441L96.2891 29.9701C85.6297 29.6041 78.7169 29.8179 73.059 32.4241L75.7086 38.1212ZM61.0484 43.3211C60.9948 43.4061 60.9147 43.4642 60.8371 43.4902C60.7662 43.5141 60.7353 43.5012 60.7271 43.4978L58.2569 49.274C61.331 50.5763 64.7341 49.2793 66.3878 46.664L61.0484 43.3211ZM53.0343 77.4926L54.3353 80.4852L60.1246 77.9923L58.8233 74.9997L53.0343 77.4926ZM54.0833 79.4525L54.9664 92.332L61.2594 91.9048L60.3767 79.025L54.0833 79.4525ZM57.5936 82.3569L71.0168 80.806L70.2895 74.57L56.8663 76.1209L57.5936 82.3569ZM60.2161 44.1968L52.8722 60.0096L58.5978 62.6434L65.9418 46.831L60.2161 44.1968ZM52.6968 60.4842L52.0288 62.871L58.1052 64.5556L58.7732 62.1688L52.6968 60.4842ZM54.4356 58.4665L40.7083 64.6448L43.3075 70.3648L57.0347 64.1865L54.4356 58.4665ZM42.731 64.4495L29.0532 61.2425L27.6068 67.353L41.2846 70.56L42.731 64.4495ZM39.0749 66.3501L34.4105 78.0843L40.2762 80.3935L44.9406 68.6594L39.0749 66.3501ZM58.8233 74.9997C57.3902 71.7026 57.1366 68.0163 58.1052 64.5556L52.0288 62.871C50.6726 67.7159 51.0274 72.8768 53.0343 77.4926L58.8233 74.9997Z" fill="#B44E40"/>
</svg>
