<svg width="120" height="120" viewBox="0 0 120 120" fill="none" xmlns="http://www.w3.org/2000/svg">
<path fill-rule="evenodd" clip-rule="evenodd" d="M108.5 0C103.963 0 100.286 3.70227 100.286 8.26923V23.3209C98.2532 25.409 97 28.2685 97 31.4231C97 37.8168 102.149 43 108.5 43C114.851 43 120 37.8168 120 31.4231C120 28.2685 118.747 25.409 116.714 23.3209V8.26923C116.714 3.70227 113.037 0 108.5 0ZM104.979 27.951L106.857 26.0219V19.8462H110.143V26.0219L112.021 27.951C112.898 28.8527 113.429 30.0689 113.429 31.4231C113.429 34.1632 111.222 36.3846 108.5 36.3846C105.778 36.3846 103.571 34.1632 103.571 31.4231C103.571 30.0689 104.102 28.8527 104.979 27.951ZM108.5 6.61538C107.593 6.61538 106.857 7.35584 106.857 8.26923V13.2308H110.143V8.26923C110.143 7.35584 109.407 6.61538 108.5 6.61538Z" fill="#206BA4"/>
<path fill-rule="evenodd" clip-rule="evenodd" d="M27.3447 43.2608C28.8553 39.4797 32.5126 37 36.5801 37H66.4198C70.4869 37 74.1443 39.4797 75.6548 43.2608L82.2859 59.8608C84.3262 64.9682 81.8452 70.7646 76.745 72.8074L71.393 74.9511V93.4398L71.3927 93.4813V110.925C71.3927 115.659 67.7907 119.762 62.958 119.99C58.1161 120.219 54.1577 116.459 53.7452 111.735L52.4379 96.7598H50.5613L49.254 111.735C48.8415 116.459 44.8831 120.219 40.0412 119.99C35.2088 119.762 31.6065 115.659 31.6065 110.925V79.2744L31.6068 79.2193V75.1971L30.77 74.8246L30.6596 74.7835L30.6622 74.7768L25.9091 72.6613C21.0227 70.4867 18.7277 64.8325 20.7137 59.8608L27.3447 43.2608ZM38.2375 79.2744L38.2379 79.2498V77.1958C38.8811 77.2947 39.5249 77.3478 40.1542 77.3342C41.2928 77.3096 42.6011 77.0663 43.8013 76.2947C45.0529 75.4906 45.895 74.2994 46.3576 72.9097C47.1901 70.4097 48.0481 67.2142 46.6566 64.0792C45.275 60.9663 42.1329 58.888 37.8125 57.1573L34.7343 55.9243L32.2716 62.0895L35.35 63.3225C39.3184 64.9118 40.3207 66.1535 40.5968 66.7756C40.8588 67.3659 40.8913 68.2995 40.1061 70.6916C40.078 70.6936 40.0465 70.6949 40.0113 70.6956C39.2169 70.7128 37.9176 70.4004 36.0771 69.7158L33.2735 68.6727L28.6023 66.5937C26.9734 65.869 26.2085 63.9842 26.8706 62.3269L33.5016 45.7269C34.0049 44.4667 35.224 43.64 36.5801 43.64H66.4198C67.7755 43.64 68.9946 44.4667 69.4982 45.7269L76.1293 62.3269C76.8093 64.0294 75.9824 65.9616 74.2822 66.6425L66.8461 69.6209C66.5915 69.7228 66.3545 69.8543 66.1383 70.0103L65.446 70.2235C64.7773 70.4293 64.2027 70.5674 63.7206 70.6391C63.3367 70.6966 63.0688 70.7029 62.896 70.6916C62.1109 68.2995 62.1434 67.3659 62.4053 66.7756C62.6815 66.1535 63.6838 64.9118 67.6521 63.3225L70.7306 62.0895L68.2678 55.9243L65.1897 57.1573C60.8693 58.888 57.7271 60.9663 56.3456 64.0792C54.954 67.2142 55.8124 70.4097 56.6446 72.9097C57.0329 74.0766 57.695 75.1248 58.68 75.9189C59.6525 76.7034 60.7502 77.0879 61.7807 77.2442C62.7697 77.394 63.7856 77.3468 64.762 77.1971V93.3983L64.7617 93.4398V110.925C64.7617 112.344 63.716 113.307 62.6454 113.357C61.5848 113.408 60.4737 112.561 60.351 111.157L58.7792 93.1506C58.6296 91.4359 57.1957 90.1198 55.4762 90.1198H47.523C45.8039 90.1198 44.3696 91.4359 44.22 93.1506L42.6482 111.157C42.5255 112.561 41.4148 113.408 40.3538 113.357C39.2836 113.307 38.2375 112.344 38.2375 110.925V79.2744Z" fill="#206BA4"/>
<path fill-rule="evenodd" clip-rule="evenodd" d="M67 18C67 26.2843 60.2843 33 52 33C43.7157 33 37 26.2843 37 18C37 9.71573 43.7157 3 52 3C60.2843 3 67 9.71573 67 18ZM60.3333 18C60.3333 22.6023 56.6023 26.3333 52 26.3333C47.3977 26.3333 43.6667 22.6023 43.6667 18C43.6667 13.3977 47.3977 9.66667 52 9.66667C56.6023 9.66667 60.3333 13.3977 60.3333 18Z" fill="#206BA4"/>
<path d="M9.07153 43.4968C10.8634 41.6942 13.566 40 16.6667 40H20V46.7059H16.6667C15.9577 46.7059 14.851 47.1669 13.7857 48.2385C13.2901 48.7368 12.9066 49.2709 12.6616 49.746C12.5408 49.9804 12.466 50.1765 12.4238 50.325C12.4175 50.3472 12.4121 50.3676 12.4076 50.3864C12.4472 50.4538 12.5101 50.5514 12.6071 50.6815C12.9729 51.172 13.504 51.7155 14.2617 52.478L14.3353 52.5517C14.997 53.217 15.8557 54.0803 16.5357 54.9923C17.215 55.9037 18.0953 57.3471 18.0953 59.1597C18.0953 60.7212 17.3033 61.8521 16.6587 62.5177C16.0203 63.1772 15.2547 63.6708 14.6103 64.0356C13.585 64.6156 12.2823 65.1796 11.1438 65.6728C10.8798 65.7871 10.6245 65.8974 10.3837 66.0034C8.93933 66.6391 7.82433 67.1853 7.08297 67.7292C6.9826 67.8026 6.90077 67.8676 6.83437 67.9236C7.19893 68.2569 7.7641 68.5969 8.77707 69.1703L8.90177 69.2407C9.76493 69.7278 11.0266 70.4403 12.0417 71.3976C13.2293 72.5175 14.2857 74.1564 14.2857 76.4032C14.2857 79.9788 11.9404 82.3185 10.6456 83.6104L10.4523 83.8038C8.83257 85.433 8.57143 85.9128 8.57143 86.462C8.57143 86.853 8.92903 87.7707 10.6097 88.8302C12.2058 89.8368 13.9807 90.2941 14.762 90.2941H18.0953V97H14.762C12.448 97 9.46083 96.0203 7.06883 94.5121C4.76143 93.0573 1.90477 90.3823 1.90477 86.462C1.90477 82.8868 4.25007 80.5471 5.54487 79.2552L5.7382 79.0618C7.3261 77.4648 7.60827 76.9719 7.61873 76.4357C7.5957 76.4059 7.5537 76.3573 7.4821 76.2899C7.1187 75.9472 6.55057 75.6042 5.50867 75.0148L5.38393 74.9444C4.52073 74.4568 3.2591 73.7443 2.244 72.7871C1.05637 71.6672 0 70.0286 0 67.7815C0 65.0595 1.82057 63.2895 3.15513 62.3105C4.55663 61.2828 6.29873 60.4818 7.71157 59.8598C8.05623 59.7083 8.38163 59.5668 8.68887 59.4333C9.5031 59.0799 10.1902 58.7815 10.771 58.4925C10.4505 58.1317 10.0487 57.7236 9.54773 57.2197L9.47427 57.1456C8.8125 56.4804 7.95397 55.6173 7.2738 54.705C6.59447 53.794 5.7143 52.3502 5.7143 50.538C5.7143 47.8405 7.33897 45.2396 9.07153 43.4968Z" fill="#206BA4"/>
<path fill-rule="evenodd" clip-rule="evenodd" d="M90.2 40C93.0966 40 95.2976 42.1325 96.5315 43.8559C97.833 45.6745 98.8858 48.1611 98.8858 50.538C98.8858 52.0806 98.3402 53.3903 97.832 54.3372C97.3418 55.2502 96.7187 56.1203 96.24 56.7888L96.1885 56.8606C95.6576 57.6023 95.2845 58.1324 95.0218 58.6139C95.424 58.9025 95.9149 59.1986 96.5552 59.5852C96.783 59.7227 97.0298 59.8715 97.2982 60.0355C98.3264 60.6638 99.6643 61.5148 100.745 62.6159C101.861 63.7526 103 65.4626 103 67.7815C103 71.641 100.426 73.6458 99.1446 74.6439L98.9773 74.7747C97.5088 75.9284 97.511 76.1139 97.5139 76.3684L97.5142 76.4032C97.5142 77.3088 97.8554 77.9177 98.9315 79.4209L99.0378 79.5691C100.031 80.9525 101.628 83.1768 101.628 86.462C101.628 90.048 99.5574 92.7046 97.6963 94.2798C96.7277 95.0992 95.6848 95.7457 94.7059 96.1983C93.8032 96.6157 92.672 97 91.5715 97H88.3715V90.2941H91.5011C91.5008 90.2934 91.503 90.2928 91.5072 90.2914L91.5258 90.2864C91.5917 90.269 91.7904 90.2167 92.1226 90.0631C92.601 89.8418 93.1578 89.5005 93.6749 89.0629C94.7856 88.1231 95.2285 87.1873 95.2285 86.462C95.2285 85.5564 94.8877 84.9479 93.8115 83.4444L93.7053 83.2965C92.7117 81.9131 91.1142 79.6888 91.1142 76.4032C91.1142 72.5436 93.688 70.5389 94.9699 69.5408L95.1373 69.41C96.5914 68.2673 96.6032 68.0745 96.6003 67.8237C96.5731 67.7664 96.4928 67.637 96.2835 67.4237C95.8214 66.953 95.1024 66.4567 94.0733 65.828C93.9136 65.7305 93.7398 65.6259 93.5565 65.5159C92.7366 65.023 91.727 64.4161 90.9373 63.7955C90.1014 63.1387 88.3715 61.6261 88.3715 59.1597C88.3715 57.617 88.9168 56.3074 89.4253 55.3605C89.9155 54.4472 90.5382 53.5774 91.0173 52.9088L91.0685 52.8371C91.6122 52.0776 91.9904 51.5402 92.2538 51.0496C92.4381 50.7059 92.4781 50.5406 92.4854 50.5091C92.4736 49.9988 92.1526 48.9148 91.4115 47.8794C91.064 47.3939 90.7171 47.0553 90.4394 46.8611C90.2838 46.7528 90.191 46.7166 90.1584 46.7059H87V40H90.2ZM94.4614 58.1434C94.4595 58.1434 94.4714 58.1595 94.5027 58.1921C94.4794 58.1599 94.4637 58.1438 94.4614 58.1434ZM96.6042 67.8318C96.6074 67.8395 96.6096 67.8452 96.6109 67.8495C96.6131 67.8559 96.6131 67.8589 96.6125 67.8586C96.6115 67.8569 96.609 67.8519 96.6074 67.8465L96.6042 67.8318Z" fill="#206BA4"/>
</svg>
