<svg width="99" height="142" viewBox="0 0 99 142" fill="none" xmlns="http://www.w3.org/2000/svg">
<path fill-rule="evenodd" clip-rule="evenodd" d="M80.9486 15.0052L18 15.0566L18.0518 77.7863L81 77.7351L80.9486 15.0052ZM49.5135 62.6594C57.3471 62.6527 63.4971 56.8063 63.4912 49.3718C63.4856 42.468 49.483 25.486 49.483 25.486C49.483 25.486 35.5077 41.9599 35.514 49.3945C35.52 56.829 41.6799 62.6656 49.5135 62.6594Z" fill="black"/>
<path fill-rule="evenodd" clip-rule="evenodd" d="M21 88.2583C20.9983 86.3355 22.5642 84.7752 24.4969 84.7735L38.4969 84.762C40.4299 84.7606 41.9983 86.3181 42 88.2413C42.0014 90.1644 40.4358 91.7248 38.5028 91.7261L24.5028 91.7376C22.5698 91.7394 21.0014 90.1815 21 88.2583Z" fill="black"/>
<path fill-rule="evenodd" clip-rule="evenodd" d="M57 88.2585C56.9983 86.3352 58.5642 84.7748 60.4969 84.7731L74.4968 84.762C76.4299 84.7602 77.9983 86.3182 78 88.2411C78.0014 90.1644 76.4358 91.7248 74.5028 91.7265L60.5028 91.7376C58.5697 91.7394 57.0014 90.1814 57 88.2585Z" fill="black"/>
<path fill-rule="evenodd" clip-rule="evenodd" d="M10.5967 7.18906L88.3257 7.12538C90.2767 7.12379 91.8599 8.70472 91.8617 10.6565L91.9337 99.0067C91.9355 100.958 90.3551 102.542 88.4038 102.543L67.2049 102.561L67.2106 109.629L88.4094 109.611C94.2635 109.607 99.0049 104.856 99 99.0006L98.9279 10.6507C98.923 4.79538 94.1737 0.0525705 88.3197 0.0573767L10.5907 0.12106C4.73695 0.125866 -0.00480142 4.87641 3.6487e-06 10.7318L0.0723629 99.0816C0.0771326 104.937 4.82669 109.68 10.6804 109.675L31.8792 109.658L31.8736 102.59L10.6747 102.607C8.72339 102.609 7.14019 101.028 7.13878 99.0759L7.06635 10.726C7.06458 8.77417 8.64531 7.19065 10.5967 7.18906Z" fill="black"/>
<path fill-rule="evenodd" clip-rule="evenodd" d="M63.8071 102.776L35.166 102.8L35.1925 134.511L63.8336 134.488L63.8071 102.776ZM28 95.7583L28.0383 141.564L71 141.529L70.9617 95.7238L28 95.7583Z" fill="black"/>
<path d="M57 120.631C57.0034 124.484 53.6482 127.609 49.506 127.612C45.3641 127.616 42.0034 124.495 42 120.642C41.9966 116.79 45.3518 113.664 49.494 113.661C53.6359 113.658 56.9966 116.779 57 120.631Z" fill="black"/>
</svg>
