<svg width="27" height="27" viewBox="0 0 27 27" fill="none" xmlns="http://www.w3.org/2000/svg">
<path d="M21.3164 12.501C20.8248 8.62875 17.5083 5.625 13.5044 5.625C10.4039 5.625 7.71064 7.43737 6.48102 10.2937C4.06452 11.016 2.25439 13.2975 2.25439 15.75C2.25439 18.8516 4.77777 21.375 7.87939 21.375H9.00439V19.125H7.87939C6.01864 19.125 4.50439 17.6108 4.50439 15.75C4.50439 14.1705 5.85327 12.6484 7.51152 12.357L8.16514 12.2422L8.38114 11.6145C9.17202 9.30713 11.1351 7.875 13.5044 7.875C16.606 7.875 19.1294 10.3984 19.1294 13.5V14.625H20.2544C21.4953 14.625 22.5044 15.6341 22.5044 16.875C22.5044 18.1159 21.4953 19.125 20.2544 19.125H18.0044V21.375H20.2544C22.7361 21.375 24.7544 19.3568 24.7544 16.875C24.7531 15.8665 24.4136 14.8875 23.7904 14.0946C23.1672 13.3016 22.2961 12.7406 21.3164 12.501Z" fill="white"/>
<path d="M14.6294 15.75V11.25H12.3794V15.75H9.00439L13.5044 21.375L18.0044 15.75H14.6294Z" fill="white"/>
</svg>
