<svg width="24" height="24" viewBox="0 0 24 24" fill="none" xmlns="http://www.w3.org/2000/svg">
<path fill-rule="evenodd" clip-rule="evenodd" d="M7.56528 1H4.95652C3.87593 1 3 1.89543 3 3V19C3 20.1046 3.87593 21 4.95652 21H16.0435C17.1241 21 18 20.1046 18 19V3C18 1.89543 17.1241 1 16.0435 1H15.3914V2.33333H16.0435C16.4037 2.33333 16.6957 2.6318 16.6957 3V19C16.6957 19.3682 16.4037 19.6667 16.0435 19.6667H4.95652C4.59633 19.6667 4.30435 19.3682 4.30435 19V3C4.30435 2.6318 4.59633 2.33333 4.95652 2.33333H7.56528V1ZM8.86963 2.33333H14.087V1H8.86963V2.33333Z" fill="white"/>
<path fill-rule="evenodd" clip-rule="evenodd" d="M5 8.5C5 8.22385 5.29847 8 5.66667 8H14.3333C14.7015 8 15 8.22385 15 8.5C15 8.77615 14.7015 9 14.3333 9H5.66667C5.29847 9 5 8.77615 5 8.5Z" fill="white"/>
<path fill-rule="evenodd" clip-rule="evenodd" d="M5 12C5 11.4477 5.29847 11 5.66667 11H10.3333C10.7015 11 11 11.4477 11 12C11 12.5523 10.7015 13 10.3333 13H5.66667C5.29847 13 5 12.5523 5 12Z" fill="white"/>
<path fill-rule="evenodd" clip-rule="evenodd" d="M5 15.5C5 15.2239 5.30995 15 5.69231 15H13.3077C13.6901 15 14 15.2239 14 15.5C14 15.7761 13.6901 16 13.3077 16H5.69231C5.30995 16 5 15.7761 5 15.5Z" fill="white"/>
<path fill-rule="evenodd" clip-rule="evenodd" d="M1.33333 3V19.4062C1.33333 21.2184 2.82573 22.6875 4.66667 22.6875H16V24H4.66667C2.08934 24 0 21.9433 0 19.4062V3H1.33333Z" fill="white"/>
<path fill-rule="evenodd" clip-rule="evenodd" d="M20 4.94225C20 3.86955 20.8954 3 22 3C23.1046 3 24 3.86955 24 4.94225V18.0866L22 21L20 18.0866V4.94225ZM22 4.29483C21.6318 4.29483 21.3333 4.58468 21.3333 4.94225V17.6945L22 18.6657L22.6667 17.6945V4.94225C22.6667 4.58468 22.3682 4.29483 22 4.29483Z" fill="white"/>
<path fill-rule="evenodd" clip-rule="evenodd" d="M23 7H21V6H23V7Z" fill="white"/>
<path fill-rule="evenodd" clip-rule="evenodd" d="M13.5 0C13.7761 0 14 0.29848 14 0.666667V3.33333C14 3.70153 13.7761 4 13.5 4C13.2239 4 13 3.70153 13 3.33333V0.666667C13 0.29848 13.2239 0 13.5 0Z" fill="white"/>
<path fill-rule="evenodd" clip-rule="evenodd" d="M6.5 0C6.77615 0 7 0.29848 7 0.666667V3.33333C7 3.70153 6.77615 4 6.5 4C6.22385 4 6 3.70153 6 3.33333V0.666667C6 0.29848 6.22385 0 6.5 0Z" fill="white"/>
</svg>
