<svg width="157" height="94" viewBox="0 0 157 94" fill="none" xmlns="http://www.w3.org/2000/svg">
<path fill-rule="evenodd" clip-rule="evenodd" d="M87.8284 25.8263C85.0103 24.6502 81.9144 24 78.6655 24C65.5955 24 55 34.5213 55 47.5C55 60.4787 65.5955 71 78.6655 71C91.7356 71 102.331 60.4787 102.331 47.5C102.331 46.4629 102.264 45.441 102.132 44.4395C104.509 42.2904 106 39.1931 106 35.75C106 29.2605 100.702 24 94.1672 24C91.8354 24 89.6609 24.6697 87.8284 25.8263ZM78.6655 63.1667C87.3792 63.1667 94.4425 56.1523 94.4425 47.5C97.1246 47.4393 99.5862 46.4895 101.542 44.9397C99.5192 46.542 96.9558 47.5 94.1672 47.5C87.632 47.5 82.3345 42.2395 82.3345 35.75C82.3345 34.5801 82.5064 33.4505 82.8271 32.384C81.5015 32.0249 80.106 31.8333 78.6655 31.8333C69.9523 31.8333 62.8885 38.8477 62.8885 47.5C62.8885 56.1523 69.9523 63.1667 78.6655 63.1667ZM98.1115 35.75C98.1115 37.9132 96.3456 39.6667 94.1672 39.6667C91.9888 39.6667 90.223 37.9132 90.223 35.75C90.223 33.5868 91.9888 31.8333 94.1672 31.8333C96.3456 31.8333 98.1115 33.5868 98.1115 35.75Z" fill="#206BA4" fill-opacity="0.8"/>
<path fill-rule="evenodd" clip-rule="evenodd" d="M4.6782 34.7181C18.0078 19.608 43.3431 0.363074 77.5305 0.00509111C77.7625 0.00156611 77.9948 0 78.2275 0H78.3413H78.5001C113.178 0 138.866 19.4658 152.322 34.7181C158.559 41.7889 158.559 52.2111 152.322 59.2819C138.866 74.5342 113.178 94 78.5001 94H78.3413H78.2275C77.9948 94 77.7625 93.9984 77.5305 93.9949C43.3431 93.6369 18.0078 74.392 4.67824 59.2819C-1.55939 52.2111 -1.55943 41.7889 4.6782 34.7181ZM10.541 39.9042C17.8903 31.5734 29.0439 22.0297 43.3615 15.5339C35.8587 23.865 31.291 34.8983 31.291 47C31.291 59.1017 35.8587 70.135 43.3615 78.4661C29.0439 71.9703 17.8903 62.4266 10.541 54.0958C6.91664 49.9876 6.91664 44.0124 10.541 39.9042ZM78.3386 7.83333C78.1012 7.83412 77.8642 7.83529 77.6275 7.83803C56.3023 8.15881 39.1138 25.5696 39.1138 47C39.1138 68.4304 56.3023 85.8412 77.6275 86.162C77.8642 86.1647 78.1012 86.1659 78.3386 86.1667C99.8895 86.1067 117.341 68.5942 117.341 47C117.341 25.4058 99.8895 7.89326 78.3386 7.83333ZM125.164 47C125.164 59.3019 120.444 70.4996 112.719 78.877C127.479 72.3777 138.953 62.604 146.459 54.0958C150.083 49.9876 150.083 44.0124 146.459 39.9042C138.953 31.396 127.479 21.6224 112.719 15.123C120.444 23.5004 125.164 34.6981 125.164 47Z" fill="#333333"/>
</svg>
