<svg width="867" height="614" viewBox="0 0 867 614" fill="none" xmlns="http://www.w3.org/2000/svg">
<g clip-path="url(#clip0_484_191)">
<path opacity="0.1" d="M288.242 613.655C330.464 613.655 364.692 608.159 364.692 601.379C364.692 594.599 330.464 589.103 288.242 589.103C246.019 589.103 211.791 594.599 211.791 601.379C211.791 608.159 246.019 613.655 288.242 613.655Z" fill="#206BA4"/>
<path opacity="0.1" d="M703.814 614C756.501 614 799.212 608.504 799.212 601.724C799.212 594.944 756.501 589.448 703.814 589.448C651.127 589.448 608.416 594.944 608.416 601.724C608.416 608.504 651.127 614 703.814 614Z" fill="#206BA4"/>
<path opacity="0.1" d="M10.8586 265.292H90.4864V373.802H16.6881C16.492 374.915 16.3037 376.037 16.0997 377.159H90.4864V464.669C90.353 464.63 90.2353 464.583 90.1097 464.536C88.007 463.704 85.9201 462.826 83.8331 461.885L82.4993 461.281C80.407 460.292 78.3148 459.246 76.2226 458.143C75.4929 457.758 74.7632 457.358 74.0414 456.951C62.4263 450.445 51.8745 442.203 42.7521 432.508C42.4853 432.249 42.2343 431.974 41.9675 431.723C40.6965 430.343 39.449 428.947 38.2407 427.519L36.9069 425.95C35.479 424.201 34.0981 422.405 32.7564 420.585C32.5603 420.318 32.372 420.051 32.168 419.8C26.7116 412.236 22.181 404.046 18.6731 395.405C18.5633 395.146 18.4691 394.863 18.3671 394.62C17.2896 391.849 16.335 389.051 15.5034 386.227C15.1425 385.042 14.7973 383.874 14.4991 382.642C14.3893 382.281 14.2951 381.928 14.2088 381.575C9.75236 364.185 9.22668 346.119 9.22668 328.18C9.22668 326.085 9.22668 323.983 9.22668 321.904C9.22668 314.648 9.31299 307.345 9.43852 300.05C9.43852 298.16 9.51698 296.277 9.55621 294.379C9.66605 289.562 9.82297 284.746 10.027 279.93C10.074 278.588 10.1368 277.255 10.2074 275.921C10.2074 275.152 10.2466 274.384 10.3251 273.615C10.5134 270.822 10.6703 268.053 10.8586 265.292Z" fill="#206BA4"/>
<path opacity="0.1" d="M90.4864 144.475H46.8085C53.9086 133.364 61.6662 122.688 70.0401 112.502C76.5286 104.532 83.3781 96.7665 90.4864 89.2831V144.475Z" fill="#206BA4"/>
<path opacity="0.1" d="M90.4864 147.833V261.935H11.1097C11.1097 261.605 11.1647 261.268 11.1882 260.939C11.2588 260.037 11.3294 259.134 11.4079 258.24C11.4942 257.189 11.5883 256.13 11.6903 255.102C11.7923 254.075 11.9022 252.82 12.0199 251.682C12.1375 250.545 12.2474 249.392 12.3808 248.254C12.5142 247.117 12.6318 245.98 12.7731 244.85C12.9143 243.72 13.0398 242.575 13.1889 241.446C13.3066 240.504 13.4321 239.571 13.5576 238.63C13.7381 237.304 13.9264 235.97 14.1304 234.653C14.1304 234.456 14.1853 234.253 14.2167 234.064C15.6487 224.417 17.5999 214.854 20.0619 205.417C22.6389 195.518 25.9297 185.818 29.9084 176.393C34.1371 166.535 39.0882 157.001 44.7214 147.872L90.4864 147.833Z" fill="#206BA4"/>
<path opacity="0.1" d="M109.497 265.284V373.801H279.572V265.284H109.497ZM109.497 377.151V470.341C110.47 470.544 111.435 470.741 112.392 470.905C113.694 471.156 114.989 471.384 116.315 471.58C116.566 471.619 116.825 471.658 117.1 471.682C117.617 471.768 118.151 471.839 118.669 471.909C119.979 472.09 121.281 472.239 122.592 472.357C123.212 472.419 123.839 472.474 124.467 472.521L125.981 472.639C126.805 472.702 127.621 472.749 128.429 472.772C128.931 472.772 129.433 472.819 129.951 472.835C130.343 472.835 130.736 472.835 131.144 472.835C131.552 472.835 132.132 472.835 132.627 472.835C133.301 472.835 133.976 472.835 134.643 472.835H135.545C136.22 472.835 136.895 472.835 137.562 472.772H137.609C138.072 472.772 138.542 472.772 139.013 472.71C139.144 472.717 139.275 472.717 139.405 472.71C139.798 472.71 140.19 472.71 140.567 472.655H140.841L143.47 472.451C144.333 472.372 145.203 472.27 146.082 472.176L147.871 471.964C155.149 470.945 162.346 469.414 169.408 467.383C185.272 462.959 200.791 456.77 216.648 452.236C237.149 446.392 259.8 443.521 279.611 450.667V377.151H109.497ZM279.572 144.475V0.00782346C260.952 -0.19387 242.382 1.98354 224.313 6.48717C181.247 17.3044 142.607 40.7665 109.497 70.7315V144.467H118.033V147.817H109.497V261.935H279.572V147.825H153.081V144.475H279.572ZM498.024 95.6762C487.37 95.2997 476.778 91.9266 467.198 86.718C448.878 76.7559 434.245 61.3733 417.895 48.3911C383.922 21.352 341.79 5.03598 298.567 0.988353V144.475H541.357L541.961 143.84L498.024 95.6762ZM520.142 91.7541L543.593 117.483V85.008C535.74 85.9807 528.859 88.2947 520.173 91.7227L520.142 91.7541ZM543.593 493.481V377.151H493.623C493.49 376.657 493.356 376.155 493.199 375.653C493.348 376.155 493.474 376.657 493.615 377.151H298.598V461.28C300.45 462.653 302.278 464.097 304.09 465.563C306.044 467.132 307.974 468.787 309.912 470.411L311.865 472.027C312.799 472.812 313.741 473.596 314.69 474.333C316.573 475.86 318.474 477.366 320.394 478.852C321.343 479.636 322.316 480.342 323.281 481.079C338.602 492.791 354.764 503.359 371.635 512.699C375.417 514.791 379.233 516.833 383.082 518.826C385.648 520.136 388.229 521.438 390.818 522.701C394.71 524.599 398.633 526.43 402.587 528.192C439.044 544.554 477.595 555.781 517.137 561.553C525.919 562.85 534.735 563.87 543.585 564.613V493.473H544.37L543.593 493.481ZM298.598 147.825V261.935H543.625V147.825H298.598ZM298.598 265.284V373.801H543.625V265.284H298.598ZM562.643 84.8668V121.092L592.575 88.2555C582.658 86.6553 572.68 85.5127 562.643 84.8276V84.8668ZM562.643 265.324V373.801H800.961V265.284L562.643 265.324ZM800.09 502.094L800.93 377.151H562.643V565.86C577.993 566.505 593.368 566.321 608.698 565.311H608.965C616.288 564.851 623.577 564.181 630.831 563.303H630.996C669.7 558.799 707.546 548.703 743.349 533.33L800.09 502.094ZM846.915 283.153C846.02 281.043 845.086 278.949 844.137 276.878C842.364 272.956 840.489 269.144 838.559 265.331H819.964V373.801H866.976C866.953 343.083 859.178 311.707 846.938 283.114L846.915 283.153ZM819.964 377.19V484.656C833.208 471.964 844.396 457.445 852.454 440.846C862.143 420.859 866.576 399.217 866.937 377.175L819.964 377.19ZM819.964 233.703V261.943H836.817C831.719 252.221 826.101 242.782 819.988 233.664L819.964 233.703ZM658.339 106.156C657.099 105.685 655.86 105.207 654.612 104.744C641.455 99.8864 628.011 95.8467 614.355 92.6483L568.551 142.906L567.672 143.84L568.261 144.483H731.282C708.578 128.858 684.1 115.979 658.363 106.117L658.339 106.156ZM736.06 147.864H565.985L562.643 150.923V261.935H591.939H591.987H800.993V208.163C782.086 185.301 760.264 165.016 736.084 147.825L736.06 147.864Z" fill="#206BA4"/>
<path opacity="0.1" d="M90.4864 205.386V261.935H11.1097C11.1097 261.605 11.1647 261.268 11.1882 260.939C11.2588 260.037 11.3294 259.134 11.4079 258.24C11.4942 257.189 11.5883 256.13 11.6903 255.103C11.7923 254.075 11.9022 252.82 12.0199 251.682C12.1375 250.545 12.2474 249.392 12.3808 248.255C12.5142 247.117 12.6318 245.98 12.7731 244.85C12.9143 243.721 13.0398 242.575 13.1889 241.446C13.3066 240.504 13.4321 239.571 13.5576 238.63C13.7381 237.304 13.9264 235.97 14.1304 234.653C14.1304 234.456 14.1853 234.253 14.2167 234.064C15.6487 224.417 17.5999 214.854 20.0619 205.417L90.4864 205.386Z" fill="#206BA4"/>
<path opacity="0.1" d="M10.8586 265.292H90.4864V373.802H16.6881C16.492 374.915 16.3037 376.037 16.0997 377.159H90.4864V464.669C90.353 464.63 90.2353 464.583 90.1097 464.536C88.007 463.704 85.9201 462.826 83.8331 461.885L82.4993 461.281C80.407 460.292 78.3148 459.246 76.2226 458.143C75.4929 457.758 74.7632 457.358 74.0414 456.951C62.4263 450.445 51.8745 442.203 42.7521 432.508C42.4853 432.249 42.2343 431.974 41.9675 431.723C40.6965 430.343 39.449 428.947 38.2407 427.519L36.9069 425.95C35.479 424.201 34.0981 422.405 32.7564 420.585C32.5603 420.318 32.372 420.051 32.168 419.8C26.7116 412.236 22.181 404.046 18.6731 395.405C18.5633 395.146 18.4691 394.863 18.3671 394.62C17.2896 391.849 16.335 389.051 15.5034 386.227C15.1425 385.042 14.7973 383.874 14.4991 382.642C14.3893 382.281 14.2951 381.928 14.2088 381.575C9.75236 364.185 9.22668 346.119 9.22668 328.18C9.22668 326.085 9.22668 323.983 9.22668 321.904C9.22668 314.648 9.31299 307.345 9.43852 300.05C9.43852 298.16 9.51698 296.277 9.55621 294.379C9.66605 289.562 9.82297 284.746 10.027 279.93C10.074 278.588 10.1368 277.255 10.2074 275.921C10.2074 275.152 10.2466 274.384 10.3251 273.615C10.5134 270.822 10.6703 268.053 10.8586 265.292Z" fill="#206BA4"/>
<path opacity="0.1" d="M169.369 164.164V261.935H109.497V164.164H118.033V131.062H153.073V164.164H169.369Z" fill="#206BA4"/>
<path opacity="0.1" d="M169.369 265.284H109.505V373.794H169.369V265.284Z" fill="#206BA4"/>
<path opacity="0.1" d="M109.497 377.159H169.369V467.368C162.306 469.397 155.109 470.925 147.832 471.941L146.043 472.161C145.164 472.262 144.293 472.349 143.43 472.435C142.567 472.521 141.673 472.584 140.802 472.639H140.527C140.151 472.639 139.743 472.686 139.374 472.694H138.974C138.503 472.694 138.032 472.741 137.562 472.757C136.895 472.796 136.228 472.804 135.545 472.812C135.255 472.812 134.98 472.812 134.69 472.812C134.015 472.812 133.348 472.812 132.674 472.812H131.191C130.791 472.812 130.406 472.812 129.99 472.812L128.476 472.757C127.692 472.757 126.844 472.67 126.028 472.615L124.522 472.506L122.647 472.333C121.329 472.215 120.018 472.066 118.724 471.886L117.155 471.666L116.37 471.557C115.06 471.353 113.765 471.133 112.447 470.882C111.482 470.717 110.525 470.513 109.552 470.317L109.497 377.159Z" fill="#206BA4"/>
<path opacity="0.1" d="M543.625 152.618H494.258V261.927H543.625V152.618Z" fill="#206BA4"/>
<path opacity="0.1" d="M543.633 265.284V373.802H298.598V326.995H429.114V354.607H494.258V265.284H543.633Z" fill="#206BA4"/>
<path opacity="0.1" d="M544.409 493.505H543.625V564.691C534.785 563.943 525.971 562.926 517.184 561.64C477.622 555.849 439.056 544.598 402.587 528.208C392.058 523.47 381.743 518.298 371.643 512.692C354.772 503.347 338.608 492.778 323.281 481.071C319.432 478.122 315.632 475.105 311.881 472.019C309.284 469.878 306.703 467.681 304.09 465.548C302.278 464.081 300.45 462.638 298.598 461.257V377.159H493.607C493.474 376.657 493.34 376.155 493.199 375.661C493.348 376.155 493.49 376.657 493.623 377.159H543.625V493.458C543.891 493.465 544.15 493.489 544.409 493.505Z" fill="#206BA4"/>
<path opacity="0.1" d="M672.375 144.475H640.207V134.482H654.628V104.713C655.878 105.168 657.123 105.636 658.363 106.117V134.482H672.375V144.475Z" fill="#206BA4"/>
<path opacity="0.1" d="M749.877 261.935H591.955C591.955 261.935 591.955 261.935 592.01 261.974L591.94 261.935H562.643V152.625H570.944V233.421H608.879V185.571H640.215V147.833H672.383V185.603H703.72V233.452H749.877V261.935Z" fill="#206BA4"/>
<path opacity="0.1" d="M562.643 265.284V373.801H749.877V265.284H562.643ZM800.702 501.537L800.961 415.643H749.877V377.206H562.643V565.86C577.994 566.505 593.368 566.321 608.698 565.311H608.965C616.288 564.851 623.577 564.181 630.832 563.303H630.996C669.7 558.799 707.546 548.703 743.349 533.33" fill="#206BA4"/>
<path opacity="0.1" d="M823.291 377.159H866.969C866.584 399.193 862.159 420.836 852.477 440.823C844.42 457.429 833.223 471.949 819.995 484.633V415.604H823.291V377.159Z" fill="#206BA4"/>
<path opacity="0.1" d="M866.992 373.801H823.291V283.114H846.938C859.178 311.707 866.953 343.083 866.992 373.801Z" fill="#206BA4"/>
<path opacity="0.1" d="M543.633 183.006H517.184V217.278H543.633V183.006Z" fill="#206BA4"/>
<path opacity="0.1" d="M543.633 254.044H517.184V261.935H543.633V254.044Z" fill="#206BA4"/>
<path opacity="0.1" d="M543.633 265.284H517.184V288.307H543.633V265.284Z" fill="#206BA4"/>
<path opacity="0.1" d="M543.633 325.081H517.184V359.353H543.633V325.081Z" fill="#206BA4"/>
<path opacity="0.1" d="M543.633 396.118H517.184V430.39H543.633V396.118Z" fill="#206BA4"/>
<path opacity="0.1" d="M543.625 493.458C543.891 493.458 544.15 493.458 544.409 493.505H543.625V501.466H517.184V467.156H543.625V493.458Z" fill="#206BA4"/>
<path opacity="0.1" d="M543.625 538.178V564.652C534.785 563.904 525.971 562.887 517.184 561.601V538.178H543.625Z" fill="#206BA4"/>
<path opacity="0.1" d="M411.947 371.283H298.598V373.801H411.947V371.283Z" fill="#206BA4"/>
<path opacity="0.1" d="M411.947 377.151H298.598V386.8H411.947V377.151Z" fill="#206BA4"/>
<path opacity="0.1" d="M411.947 418.427H298.598V433.943H411.947V418.427Z" fill="#206BA4"/>
<path opacity="0.1" d="M411.94 465.571V481.087H323.281C319.432 478.148 315.629 475.131 311.873 472.035C309.276 469.893 306.703 467.697 304.082 465.571H411.94Z" fill="#206BA4"/>
<path opacity="0.1" d="M411.94 512.707V528.208H402.579C392.061 523.464 381.749 518.29 371.643 512.684L411.94 512.707Z" fill="#206BA4"/>
<path opacity="0.1" d="M631.02 275.803H608.706V298.112H631.02V275.803Z" fill="#206BA4"/>
<path opacity="0.1" d="M147.887 171.859H125.573V194.168H147.887V171.859Z" fill="#206BA4"/>
<path opacity="0.1" d="M147.887 223.678H125.573V245.987H147.887V223.678Z" fill="#206BA4"/>
<path opacity="0.1" d="M147.887 275.498H125.573V297.807H147.887V275.498Z" fill="#206BA4"/>
<path opacity="0.1" d="M147.887 327.309H125.573V349.618H147.887V327.309Z" fill="#206BA4"/>
<path opacity="0.1" d="M147.887 379.128H125.573V401.437H147.887V379.128Z" fill="#206BA4"/>
<path opacity="0.1" d="M147.887 430.947H125.573V453.256H147.887V430.947Z" fill="#206BA4"/>
<path opacity="0.1" d="M716.202 275.803H693.889V298.112H716.202V275.803Z" fill="#206BA4"/>
<path opacity="0.1" d="M631.02 330.831H608.706V353.14H631.02V330.831Z" fill="#206BA4"/>
<path opacity="0.1" d="M716.202 330.831H693.889V353.14H716.202V330.831Z" fill="#206BA4"/>
<path opacity="0.1" d="M631.02 385.85H608.706V408.159H631.02V385.85Z" fill="#206BA4"/>
<path opacity="0.1" d="M716.202 385.85H693.889V408.159H716.202V385.85Z" fill="#206BA4"/>
<path opacity="0.1" d="M631.02 440.878H608.706V463.187H631.02V440.878Z" fill="#206BA4"/>
<path opacity="0.1" d="M716.202 440.878H693.889V463.187H716.202V440.878Z" fill="#206BA4"/>
<path opacity="0.1" d="M631.02 495.905H608.706V518.214H631.02V495.905Z" fill="#206BA4"/>
<path opacity="0.1" d="M716.202 495.905H693.889V518.214H716.202V495.905Z" fill="#206BA4"/>
<path opacity="0.1" d="M608.706 565.311V550.925H631.012V563.264L608.706 565.311Z" fill="#206BA4"/>
<path opacity="0.1" d="M14.1226 234.049V246.811H90.4864V234.049H14.1226ZM21.7331 246.011H15.5034V234.833H21.7801L21.7331 246.011ZM29.3357 246.011H23.059V234.833H29.3357V246.011ZM36.9227 246.011H30.646V234.833H36.9227V246.011ZM44.5253 246.011H38.2565V234.833H44.5331L44.5253 246.011ZM52.1201 246.011H45.8434V234.833H52.1201V246.011ZM59.7228 246.011H53.4461V234.833H59.7228V246.011ZM67.3254 246.011H61.0487V234.833H67.3254V246.011ZM74.9202 246.011H68.6435V234.833H74.9202V246.011ZM82.515 246.011H76.2383V234.833H82.515V246.011ZM90.1098 246.011H83.8331V234.833H90.1098V246.011Z" fill="#206BA4"/>
<path opacity="0.1" d="M14.1226 271.183V283.946H90.4864V271.183H14.1226ZM21.7331 283.138H15.5034V271.991H21.7801L21.7331 283.138ZM29.3357 283.138H23.059V271.991H29.3357V283.138ZM36.9227 283.138H30.646V271.991H36.9227V283.138ZM44.5253 283.138H38.2565V271.991H44.5331L44.5253 283.138ZM52.1201 283.138H45.8434V271.991H52.1201V283.138ZM59.7228 283.138H53.4461V271.991H59.7228V283.138ZM67.3254 283.138H61.0487V271.991H67.3254V283.138ZM74.9202 283.138H68.6435V271.991H74.9202V283.138ZM82.515 283.138H76.2383V271.991H82.515V283.138ZM90.1098 283.138H83.8331V271.991H90.1098V283.138Z" fill="#206BA4"/>
<path opacity="0.1" d="M14.1226 308.333V321.12H90.4864V308.333H14.1226ZM21.7331 320.288H15.5034V309.134H21.7801L21.7331 320.288ZM29.3357 320.288H23.059V309.134H29.3357V320.288ZM36.9227 320.288H30.646V309.134H36.9227V320.288ZM44.5253 320.288H38.2565V309.134H44.5331L44.5253 320.288ZM52.1201 320.288H45.8434V309.134H52.1201V320.288ZM59.7228 320.288H53.4461V309.134H59.7228V320.288ZM67.3254 320.288H61.0487V309.134H67.3254V320.288ZM74.9202 320.288H68.6435V309.134H74.9202V320.288ZM82.515 320.288H76.2383V309.134H82.515V320.288ZM90.1098 320.288H83.8331V309.134H90.1098V320.288Z" fill="#206BA4"/>
<path opacity="0.1" d="M14.1226 345.484V358.231H90.4864V345.484H14.1226ZM21.7331 357.439H15.5034V346.276H21.7801L21.7331 357.439ZM29.3357 357.439H23.059V346.276H29.3357V357.439ZM36.9227 357.439H30.646V346.276H36.9227V357.439ZM44.5253 357.439H38.2565V346.276H44.5331L44.5253 357.439ZM52.1201 357.439H45.8434V346.276H52.1201V357.439ZM59.7228 357.439H53.4461V346.276H59.7228V357.439ZM67.3254 357.439H61.0487V346.276H67.3254V357.439ZM74.9202 357.439H68.6435V346.276H74.9202V357.439ZM82.515 357.439H76.2383V346.276H82.515V357.439ZM90.1098 357.439H83.8331V346.276H90.1098V357.439Z" fill="#206BA4"/>
<path opacity="0.1" d="M14.4521 382.626C14.7581 383.826 15.1034 385.027 15.4643 386.211V383.426H21.741V394.581H18.3829C18.4849 394.84 18.5869 395.122 18.6889 395.365H90.4865V382.626H14.4521ZM29.3593 394.581H23.0826V383.426H29.3593V394.581ZM36.9463 394.581H30.6696V383.426H36.9463V394.581ZM44.5489 394.581H38.2565V383.426H44.5332L44.5489 394.581ZM52.1437 394.581H45.867V383.426H52.1437V394.581ZM59.7463 394.581H53.4697V383.426H59.7463V394.581ZM67.349 394.581H61.0723V383.426H67.349V394.581ZM74.9438 394.581H68.6671V383.426H74.9438V394.581ZM82.5386 394.581H76.2619V383.426H82.5386V394.581ZM90.1334 394.581H83.8567V383.426H90.1334V394.581Z" fill="#206BA4"/>
<path opacity="0.1" d="M32.1837 419.777C32.3799 420.028 32.5682 420.31 32.7722 420.561H36.9226V425.919C37.3698 426.452 37.8092 426.985 38.2643 427.487V420.53H44.541V431.723H41.9989C42.25 431.982 42.4932 432.257 42.7835 432.508H90.5099V419.777H32.1837ZM52.1201 431.723H45.8434V420.577H52.1201V431.723ZM59.7227 431.723H53.446V420.577H59.7227V431.723ZM67.3254 431.723H61.0487V420.577H67.3254V431.723ZM74.9202 431.723H68.6435V420.577H74.9202V431.723ZM82.515 431.723H76.2383V420.577H82.515V431.723ZM90.1098 431.723H83.8331V420.577H90.1098V431.723Z" fill="#206BA4"/>
<path opacity="0.1" d="M74.0729 456.919C74.7869 457.327 75.5165 457.704 76.254 458.112V457.719H82.5307V461.249L83.8645 461.869V457.719H90.1412V464.505C90.2616 464.564 90.3878 464.612 90.5178 464.646V456.919H74.0729Z" fill="#206BA4"/>
<path opacity="0.1" d="M591.955 261.935H592.002H591.955ZM543.625 493.45H544.409H543.625ZM493.199 375.653C493.348 376.155 493.474 376.657 493.615 377.151C493.49 376.657 493.356 376.155 493.199 375.653ZM591.955 261.911H592.002H591.955ZM118.065 144.452V147.801H153.112V144.452H118.065ZM543.625 493.45H544.409H543.625ZM493.199 375.653C493.348 376.155 493.474 376.657 493.615 377.151C493.49 376.657 493.356 376.155 493.199 375.653ZM591.955 261.911H592.002H591.955ZM543.625 493.426H544.409H543.625ZM493.199 375.653C493.348 376.155 493.474 376.657 493.615 377.151C493.49 376.657 493.356 376.155 493.199 375.653Z" fill="#206BA4"/>
<path d="M362.165 297.822C362.165 297.822 359.074 297.391 359.074 292.888C359.074 288.386 356.862 279.977 356.862 279.977C356.862 279.937 354.947 265.331 352.303 263.01C349.659 260.688 346.262 247.054 346.262 247.054C346.262 247.054 345.681 239.657 344.496 238.065C343.312 236.472 341.711 232.574 339.35 227.012C336.988 221.451 327.141 217.599 327.141 217.599C327.141 217.599 309.339 207.276 304.294 203.911C303.836 203.635 303.407 203.311 303.015 202.946C302.137 201.793 298.308 201.77 298.308 201.77C297.908 199.244 297.523 196.341 297.398 193.714C297.398 193.431 297.398 193.149 297.358 192.866C302.984 189.542 307.221 184.3 309.292 178.103C309.386 177.805 309.465 177.492 309.551 177.194C309.888 177.083 310.198 176.902 310.462 176.665C310.725 176.427 310.936 176.137 311.081 175.813C311.536 174.801 311.544 173.617 312.109 172.675C312.768 171.561 314.023 170.965 315.012 170.126C317.507 168.008 318.15 164.439 318.032 161.191C317.954 158.563 317.53 155.912 317.695 153.3L317.742 152.641C317.789 152.249 317.844 151.857 317.915 151.48C318.299 149.535 319.139 147.699 319.609 145.77C320.08 143.84 320.127 141.667 319.029 140.004C317.42 137.564 314.07 137.078 311.128 136.827C307.794 136.545 304.812 136.913 302.678 134.144C301.679 132.697 300.556 131.34 299.32 130.089C298.881 129.681 294.612 127.077 294.612 126.904C290.447 124.975 285.725 124.613 281.314 125.884C279.101 126.528 277.014 127.579 274.77 128.104C269.929 129.25 264.359 128.01 260.248 130.779C257.957 132.348 256.584 134.843 255.297 137.274C254.251 139.277 253.189 141.277 252.111 143.275C250.377 146.562 248.612 149.903 247.882 153.543C247.729 154.335 247.635 155.137 247.6 155.943V155.983C247.6 156.273 247.6 156.563 247.6 156.853V157.222C247.6 157.497 247.6 157.763 247.647 158.007C247.694 158.25 247.686 158.328 247.71 158.493C247.733 158.658 247.773 159.026 247.82 159.277C247.867 159.528 247.961 159.968 248.055 160.313C248.094 160.462 248.149 160.603 248.196 160.744C248.275 161.011 248.369 161.27 248.471 161.529C248.526 161.662 248.581 161.803 248.643 161.937C248.761 162.211 248.902 162.478 249.044 162.721C249.106 162.831 249.153 162.933 249.216 163.035C249.435 163.399 249.676 163.751 249.938 164.086C251.617 166.18 254.089 167.514 255.917 169.475C255.917 169.553 255.917 169.632 255.917 169.702C255.917 169.922 255.917 170.134 255.917 170.353C256.014 174.727 257.178 179.011 259.308 182.832C261.439 186.653 264.471 189.896 268.14 192.278C268.14 192.576 268.18 192.882 268.195 193.18C268.348 195.509 268.32 197.845 268.109 200.169C267.79 199.793 267.39 199.493 266.939 199.293C266.488 199.092 265.998 198.994 265.504 199.008C265.167 198.992 264.829 199.021 264.5 199.095L264.429 199.04V199.11C262.703 199.534 260.577 201.33 258.545 206.437C258.545 206.437 252.362 213.403 247.655 213.112C242.947 212.822 231.03 220.36 231.03 220.36C231.03 220.36 219.402 227.907 216.907 235.594C215.512 239.953 213.84 244.219 211.901 248.364L197.528 277.976L194.876 301.47C194.876 301.47 196.343 311.918 196.053 313.511C195.762 315.103 202.086 329.466 202.086 329.466C202.086 329.466 222.98 366.169 231.516 368.052L232.128 367.62C232.493 367.811 232.881 367.956 233.281 368.052L235.039 366.812C235.144 368.194 235.1 369.582 234.905 370.954C233.728 374.578 235.345 398.229 237.4 402.864C239.456 407.5 238.726 468.285 238.726 468.285L238.436 473.651C238.436 473.651 238.436 473.823 238.507 474.122L238.436 475.392L238.648 475.502C238.868 477.204 238.796 478.931 238.436 480.609C237.699 482.962 237.4 489.614 237.4 489.614C237.4 489.614 231.524 527.172 234.309 534.718C237.094 542.264 239.464 550.532 239.464 550.532C239.464 550.532 242.406 559.945 239.605 561.553C236.804 563.162 228.841 565.86 230.48 569.782C231.971 573.406 237.628 583.117 238.467 584.537L238.397 585.282L237.243 597.778C237.43 599.428 237.878 601.038 238.569 602.547C239.833 605.269 242.288 608.093 246.957 607.787C247.741 607.733 248.651 607.638 249.53 607.521C258.074 606.375 268.596 602.563 268.596 602.563C268.049 602.216 267.549 601.802 267.105 601.332C266.685 600.925 266.352 600.437 266.127 599.897C265.902 599.358 265.789 598.778 265.795 598.194C265.92 595.919 261.66 585.078 260.601 582.411C260.436 582.027 260.35 581.807 260.35 581.807C260.35 581.807 270.063 571.657 268.446 562.659C268.446 562.659 257.698 556.384 261.236 552.94C264.775 549.497 271.098 539.605 271.098 539.605C271.098 539.605 271.389 502.62 271.098 497.097C270.796 493.264 270.977 489.409 271.64 485.621C271.757 485.049 271.899 484.492 272.048 483.943C276.941 484.673 281.882 485.048 286.829 485.064C288.634 485.064 290.47 485.064 292.321 484.954C292.321 485.477 292.345 486.042 292.392 486.649C292.8 495.811 293.561 511.876 294.181 517.845C295.06 526.403 299.916 549.465 299.916 549.465C299.916 549.465 290.65 555.411 301.532 570.064C301.532 570.064 301.533 575.375 300.811 576.144C300.04 578.657 299.419 581.213 298.951 583.8C298.496 586.561 298.308 589.353 299.045 590.805C300.811 594.272 311.403 593.989 311.403 593.989L311.662 593.942C313.661 593.736 315.682 593.928 317.607 594.508C319.531 595.089 321.321 596.046 322.873 597.323C326.898 600.555 342.174 599.135 350.444 598.108C353.684 597.7 355.849 597.323 355.849 597.323C355.954 596.956 355.992 596.574 355.959 596.194C355.873 594.162 354.28 589.706 343.484 585.729C343.484 585.729 333.332 578.905 333.473 572.959H333.261H332.084C332.939 572.912 333.489 572.959 333.489 572.959C333.489 572.959 329.511 558.447 331.135 557.27C332.759 556.094 327.895 540.013 327.895 540.013C327.895 540.013 325.109 513.029 324.96 511.138C324.967 509.516 325.212 507.904 325.69 506.354L324.96 491.559C324.96 491.559 324.819 486.641 324.96 485.041C324.936 483.652 324.824 482.266 324.623 480.891C324.552 480.342 324.482 479.769 324.403 479.205C328.208 478.24 330.68 477.345 330.68 477.345L330.241 425.848C333.473 419.573 334.069 405.806 334.054 396.04C334.054 389.765 333.771 385.121 333.771 385.121L338.188 377.912C338.188 377.912 339.208 369.283 337.592 367.393C336.878 366.538 337.2 365.651 337.788 364.922C338.094 364.68 338.416 364.459 338.753 364.263C338.753 364.263 338.706 364.192 338.651 364.09C338.96 363.833 339.288 363.599 339.632 363.392C339.632 363.392 338.063 360.961 339.467 359.933C340.785 360.827 341.962 361.502 342.857 362.051C342.794 362.624 342.731 362.953 342.731 362.953L343.108 362.169C343.971 362.655 344.496 362.953 344.496 362.953C344.496 362.953 351.417 349.171 351.267 347.139C351.118 345.107 355.975 336.549 355.975 336.549C355.975 336.549 356.563 332.055 359.215 330.172C361.867 328.289 361.271 314.648 361.271 314.648C361.271 314.648 362.008 307.541 363.774 304.639C365.539 301.737 362.165 297.822 362.165 297.822ZM229.758 291.774L229.892 295.061C229.107 293.798 228.542 292.888 228.542 292.888L229.758 291.774Z" fill="url(#paint0_linear_484_191)"/>
<path d="M344.873 356.999L343.178 364.216C343.178 364.216 329.605 357.289 327.157 348.488C324.709 339.687 331.253 336.345 331.253 336.345L343.9 341.703L344.873 356.999Z" fill="white"/>
<path opacity="0.1" d="M344.873 356.999L343.178 364.216C343.178 364.216 329.605 357.289 327.157 348.488C324.709 339.687 331.253 336.345 331.253 336.345L343.9 341.703L344.873 356.999Z" fill="black"/>
<path d="M268.697 602.61C268.697 602.61 256.144 607.223 247.514 607.803C242.932 608.109 240.523 605.301 239.283 602.595C238.606 601.09 238.169 599.489 237.989 597.849L239.111 585.416L239.707 578.795L258.043 574.034L260.64 581.972L260.883 582.576C261.927 585.227 266.108 596.013 265.983 598.265C265.978 598.841 266.089 599.413 266.31 599.945C266.531 600.477 266.858 600.96 267.27 601.363C267.691 601.838 268.17 602.257 268.697 602.61Z" fill="white"/>
<path d="M354.445 596.288C354.476 596.665 354.439 597.045 354.335 597.409C354.335 597.409 327.487 601.888 321.995 597.409C320.446 596.101 318.641 595.131 316.695 594.56C314.75 593.99 312.706 593.833 310.697 594.099C310.697 594.099 300.309 594.382 298.575 590.961C297.853 589.526 298.041 586.741 298.488 583.996C298.945 581.423 299.552 578.88 300.309 576.379L300.724 576.05L303.196 574.065L332.131 573.21H332.351C332.21 579.125 342.174 585.91 342.174 585.91C352.758 589.832 354.32 594.264 354.445 596.288Z" fill="white"/>
<path opacity="0.1" d="M354.445 596.288C354.472 596.666 354.433 597.045 354.327 597.409C354.327 597.409 327.487 601.889 321.994 597.409C320.447 596.102 318.643 595.132 316.699 594.562C314.755 593.992 312.713 593.834 310.704 594.099C310.704 594.099 300.308 594.382 298.582 590.962C297.861 589.518 298.041 586.741 298.488 583.996C302.49 584.396 308.806 585.392 311.285 587.769C315.035 591.385 321.39 594.993 325.29 595.276C328.342 595.472 346.599 596.052 354.445 596.288Z" fill="black"/>
<path opacity="0.1" d="M268.698 602.61C268.698 602.61 256.144 607.223 247.514 607.803C242.932 608.109 240.523 605.301 239.291 602.587C242.485 603.661 246.917 604.791 249.248 603.755C252.009 602.532 261.801 601.739 267.293 601.402C267.711 601.86 268.183 602.265 268.698 602.61Z" fill="black"/>
<path d="M287.324 230.911C276.967 226.887 263.645 213.591 266.971 207.378C267.71 205.81 268.149 204.118 268.266 202.389C268.48 200.042 268.512 197.682 268.36 195.329C268.127 191.477 267.663 187.642 266.971 183.845C266.971 183.845 299.304 184.575 297.421 189.336C296.872 190.733 296.786 193.157 296.935 195.871C297.084 198.585 297.476 201.652 297.884 204.248C298.449 207.81 299.014 210.524 299.014 210.524C299.014 210.524 297.037 213.293 295.876 213.442C294.714 213.591 302.184 236.645 287.324 230.911Z" fill="#CF6F80"/>
<path opacity="0.1" d="M260.859 582.576L260.616 582.843C250.95 571.155 239.26 585.722 239.26 585.722L239.087 585.416L239.683 578.795L258.019 574.034L260.616 581.972L260.859 582.576Z" fill="black"/>
<path opacity="0.1" d="M332.359 574.034C332.359 574.034 325.298 573.885 321.532 577.211C317.766 580.537 299.563 577.932 300.348 577.211C300.58 576.853 300.72 576.443 300.756 576.018L303.227 574.034L332.163 573.179C332.273 573.704 332.359 574.034 332.359 574.034Z" fill="black"/>
<path d="M272.887 482.248C272.361 483.548 271.962 484.896 271.695 486.272C271.04 490.042 270.858 493.879 271.153 497.694C271.444 503.185 271.153 539.982 271.153 539.982C271.153 539.982 264.947 549.795 261.487 553.254C258.027 556.714 268.548 562.926 268.548 562.926C270.118 571.869 260.608 581.972 260.608 581.972C250.942 570.284 239.252 584.859 239.252 584.859C239.252 584.859 232.897 573.877 231.312 569.955C229.727 566.033 237.518 563.318 240.256 561.726C242.994 560.134 240.123 550.744 240.123 550.744C240.123 550.744 237.808 542.516 235.062 535.009C232.316 527.502 238.091 490.132 238.091 490.132C238.091 490.132 238.389 483.495 239.103 481.181C239.463 479.512 239.535 477.792 239.315 476.098C239.268 475.526 239.213 475.047 239.173 474.726C239.134 474.404 239.103 474.255 239.103 474.255L239.213 474.067L243.136 466.756C243.136 466.756 274.77 477.644 272.887 482.248Z" fill="#206BA4"/>
<path d="M332.359 573.171C332.359 573.171 325.298 573.022 321.532 576.308C317.766 579.595 299.563 577.03 300.348 576.308C301.132 575.587 301.07 570.245 301.07 570.245C290.391 555.67 299.5 549.756 299.5 549.756C299.5 549.756 294.73 526.811 293.867 518.3C293.263 512.354 292.518 496.376 292.117 487.253C291.945 483.331 291.843 480.632 291.843 480.632L300.567 478.875L301.689 478.648L322.732 474.427C322.732 474.427 323.313 478.35 323.705 481.558C323.9 482.928 324.01 484.308 324.034 485.692C323.893 487.261 324.034 492.171 324.034 492.171L324.748 506.895C324.282 508.439 324.041 510.043 324.034 511.656C324.176 513.531 326.914 540.374 326.914 540.374C326.914 540.374 331.676 556.392 330.052 557.545C328.428 558.698 332.359 573.171 332.359 573.171Z" fill="#206BA4"/>
<path opacity="0.1" d="M297.421 189.336C296.872 190.733 296.786 193.157 296.935 195.871C292.604 198.478 287.625 199.811 282.571 199.717C277.516 199.622 272.591 198.105 268.36 195.337C268.127 191.482 267.663 187.645 266.971 183.845C266.971 183.845 299.304 184.559 297.421 189.336Z" fill="black"/>
<path d="M309.92 172.001C309.926 174.827 309.481 177.637 308.602 180.323C306.636 186.343 302.605 191.474 297.222 194.809C291.838 198.144 285.449 199.47 279.182 198.551C272.916 197.632 267.176 194.528 262.978 189.787C258.779 185.046 256.392 178.974 256.238 172.644C256.238 172.424 256.238 172.22 256.238 172.001C256.177 168.437 256.827 164.898 258.148 161.588C259.47 158.279 261.438 155.265 263.937 152.724C266.435 150.182 269.415 148.164 272.703 146.786C275.99 145.408 279.519 144.699 283.083 144.699C286.647 144.699 290.176 145.408 293.463 146.786C296.751 148.164 299.731 150.182 302.229 152.724C304.728 155.265 306.696 158.279 308.017 161.588C309.339 164.898 309.989 168.437 309.928 172.001H309.92Z" fill="#CF6F80"/>
<path opacity="0.1" d="M287.324 230.911C276.967 226.887 263.645 213.591 266.971 207.378C267.71 205.81 268.149 204.118 268.266 202.389L282.444 214.038L291.215 221.231L297.884 204.256C298.449 207.817 299.014 210.532 299.014 210.532C299.014 210.532 297.037 213.301 295.876 213.45C294.714 213.599 302.184 236.645 287.324 230.911Z" fill="black"/>
<path d="M323.987 282.393L312.148 481.244L296.707 482.256L256.725 366.953L263.284 230.064L264.665 201.142L282.443 215.74L291.223 222.933L298.088 205.464L310.853 216.587L323.987 282.393Z" fill="#206BA4"/>
<path opacity="0.1" d="M272.887 482.248C272.361 483.548 271.962 484.896 271.695 486.272C260.459 484.538 249.547 481.13 239.323 476.161L239.111 476.051L239.181 474.788L239.221 474.129L243.144 466.819C243.144 466.819 274.77 477.644 272.887 482.248Z" fill="black"/>
<path opacity="0.1" d="M300.748 486.304C297.876 486.792 294.979 487.122 292.07 487.292C291.898 483.37 291.796 480.671 291.796 480.671L300.52 478.914L300.748 486.304Z" fill="black"/>
<path opacity="0.1" d="M323.658 481.597C318.079 483.048 309.465 484.68 301.752 483.66L301.642 478.687L322.685 474.467C322.685 474.467 323.266 478.35 323.658 481.597Z" fill="black"/>
<path opacity="0.1" d="M301.611 484.57C269.443 490.061 239.982 474.318 239.982 474.318L240.264 468.984C240.264 468.984 240.994 408.512 238.969 403.876C236.945 399.24 235.368 375.731 236.514 372.123C237.659 368.515 232.332 314.405 232.332 314.405L231.469 292.441L199.881 279.647L214.004 250.216C215.911 246.089 217.552 241.845 218.915 237.508C221.371 229.868 232.771 222.361 232.771 222.361C232.771 222.361 244.462 214.862 249.083 215.144C253.704 215.426 259.761 208.508 259.761 208.508C264.233 197.11 268.282 202.272 268.282 202.272C268.282 202.813 268.282 202.272 268.062 203.958C266.493 216.47 293.436 256.005 293.82 256.703L296.386 319.19L298.983 398.268L301.611 484.57Z" fill="black"/>
<path d="M300.748 484.57C268.58 490.061 239.111 474.318 239.111 474.318L239.401 468.984C239.401 468.984 240.131 408.512 238.099 403.876C236.066 399.24 234.497 375.731 235.651 372.123C236.804 368.514 231.469 314.405 231.469 314.405L230.598 292.441L198.995 279.6L213.117 250.168C215.021 246.04 216.661 241.796 218.029 237.461C220.477 229.82 231.885 222.314 231.885 222.314C231.885 222.314 243.575 214.814 248.188 215.097C252.802 215.379 258.867 208.461 258.867 208.461C263.347 197.063 268.282 202.224 268.282 202.224C268.282 202.766 267.811 203.009 268.062 203.911C271.514 216.046 292.572 255.957 292.957 256.656L295.554 319.143L298.151 398.221L300.748 484.57Z" fill="white"/>
<path opacity="0.1" d="M292.078 258.436C288.618 256.993 270.29 236.072 270.29 236.072V231.311C269.623 229.742 265.661 230.699 262.444 231.797L263.825 202.876L265.394 204.178C268.831 216.305 291.678 257.738 292.078 258.436Z" fill="black"/>
<path d="M292.949 256.703C289.481 255.259 271.153 234.339 271.153 234.339V229.577C270.486 228.008 266.524 228.966 263.307 230.064L264.696 201.142L266.265 202.444C269.71 214.571 292.565 256.012 292.949 256.703Z" fill="white"/>
<path opacity="0.1" d="M239.982 361.039C240.413 361.039 262.35 358.733 262.35 358.733C262.35 358.733 275.633 384.846 274.762 391.2C273.891 397.554 272.314 403.178 266.971 402.182C261.628 401.186 238.216 402.966 238.216 402.966L239.982 361.039Z" fill="black"/>
<path d="M239.111 359.305C239.542 359.305 261.479 356.999 261.479 356.999C261.479 356.999 274.755 383.12 273.892 389.466C273.028 395.812 271.436 401.445 266.101 400.448C260.765 399.452 237.345 401.233 237.345 401.233L239.111 359.305Z" fill="white"/>
<path d="M255.642 347.045C255.642 347.045 275.774 357.862 276.206 361.164C276.638 364.467 265.959 359.721 263.653 359.148C262.134 358.783 260.589 358.541 259.031 358.427L243.646 358.843L255.642 347.045Z" fill="#CF6F80"/>
<path opacity="0.1" d="M286.461 259.786C287.63 259.786 288.579 258.837 288.579 257.668C288.579 256.498 287.63 255.55 286.461 255.55C285.291 255.55 284.342 256.498 284.342 257.668C284.342 258.837 285.291 259.786 286.461 259.786Z" fill="black"/>
<path d="M286.461 258.923C287.63 258.923 288.579 257.974 288.579 256.805C288.579 255.635 287.63 254.687 286.461 254.687C285.291 254.687 284.342 255.635 284.342 256.805C284.342 257.974 285.291 258.923 286.461 258.923Z" fill="#3F3D56"/>
<path opacity="0.1" d="M290.36 351.469C291.53 351.469 292.478 350.521 292.478 349.351C292.478 348.181 291.53 347.233 290.36 347.233C289.19 347.233 288.242 348.181 288.242 349.351C288.242 350.521 289.19 351.469 290.36 351.469Z" fill="black"/>
<path d="M290.36 350.598C291.53 350.598 292.478 349.65 292.478 348.48C292.478 347.311 291.53 346.362 290.36 346.362C289.19 346.362 288.242 347.311 288.242 348.48C288.242 349.65 289.19 350.598 290.36 350.598Z" fill="#3F3D56"/>
<path opacity="0.1" d="M288.571 305.627C289.741 305.627 290.689 304.679 290.689 303.509C290.689 302.34 289.741 301.391 288.571 301.391C287.401 301.391 286.453 302.34 286.453 303.509C286.453 304.679 287.401 305.627 288.571 305.627Z" fill="black"/>
<path d="M288.571 304.764C289.741 304.764 290.689 303.816 290.689 302.647C290.689 301.477 289.741 300.529 288.571 300.529C287.401 300.529 286.453 301.477 286.453 302.647C286.453 303.816 287.401 304.764 288.571 304.764Z" fill="#3F3D56"/>
<path d="M337.404 357.988C337.404 357.988 338.847 360.153 337.404 361.165C335.96 362.176 337.545 364.624 337.545 364.624C337.545 364.624 333.944 366.734 335.529 368.632C337.113 370.531 336.109 379.104 336.109 379.104L331.778 386.274C331.778 386.274 332.037 390.894 332.053 397.138C332.053 406.881 331.48 420.577 328.31 426.821L328.75 478.052C328.75 478.052 313.584 483.59 300.889 481.903L299.006 399.695C299.006 399.695 301.752 353.077 302.764 344.135C303.357 339.492 303.598 334.812 303.486 330.133C303.486 330.133 303.054 316.139 301.603 309.644C301.603 309.644 300.034 281.506 299.877 273.717C299.806 269.991 300.002 259.119 300.222 248.78C300.465 237.477 300.74 226.816 300.74 226.816L297.876 204.162C297.876 204.162 300.74 203.872 301.603 205.025C301.99 205.386 302.41 205.709 302.858 205.99C307.801 209.331 325.266 219.607 325.266 219.607C325.266 219.607 334.932 223.451 337.247 228.958C339.561 234.464 341.17 238.371 342.292 239.94C343.414 241.508 344.026 248.882 344.026 248.882C344.026 248.882 347.352 262.453 349.949 264.751C352.546 267.049 354.445 281.671 354.445 281.671L331.496 299.713C331.496 299.713 329.479 329.725 329.048 330.886C328.616 332.047 337.404 357.988 337.404 357.988Z" fill="white"/>
<path d="M338.275 357.988C338.275 357.988 339.71 360.153 338.275 361.164C336.839 362.176 338.408 364.624 338.408 364.624C338.408 364.624 334.83 366.757 336.399 368.656C337.969 370.554 336.98 379.128 336.98 379.128L332.649 386.297C332.649 386.297 332.908 390.918 332.932 397.162C332.932 406.904 332.359 420.6 329.189 426.844L329.621 478.075C329.621 478.075 314.431 483.613 301.752 481.927L299.877 399.719C299.877 399.719 302.623 353.101 303.635 344.158C304.228 339.516 304.467 334.835 304.349 330.156C304.349 330.156 303.918 316.162 302.474 309.667C302.474 309.667 300.905 281.53 300.74 273.74C300.669 270.014 300.873 259.142 301.085 248.804C301.328 237.5 301.603 226.84 301.603 226.84L297.821 203.88C297.821 203.88 301.603 203.88 302.474 205.048C302.857 205.414 303.278 205.737 303.729 206.013C308.672 209.355 326.145 219.631 326.145 219.631C326.145 219.631 335.803 223.475 338.118 228.981C340.432 234.488 342.041 238.394 343.17 239.963C344.3 241.532 344.897 248.906 344.897 248.906C344.897 248.906 348.223 262.476 350.82 264.774C353.417 267.073 355.292 281.663 355.292 281.663L332.343 299.705C332.343 299.705 330.327 329.717 329.887 330.878C329.448 332.039 338.275 357.988 338.275 357.988Z" fill="white"/>
<path opacity="0.1" d="M310.791 233.499L312.862 239.54L301.956 250.521C302.199 239.226 302.474 228.558 302.474 228.558L298.692 205.598C298.692 205.598 302.474 205.598 303.345 206.766C303.727 207.131 304.148 207.452 304.6 207.723L313.874 234.472L310.791 233.499Z" fill="black"/>
<path d="M309.92 231.766L311.999 237.806L301.093 248.788C301.336 237.484 301.611 226.824 301.611 226.824L297.821 203.864C297.821 203.864 301.611 203.864 302.474 205.033C302.859 205.396 303.279 205.719 303.729 205.998L313.011 232.739L309.92 231.766Z" fill="white"/>
<path opacity="0.1" d="M309.92 172.001C309.926 174.827 309.481 177.637 308.602 180.323C308.453 180.346 308.302 180.34 308.157 180.303C308.011 180.267 307.874 180.202 307.754 180.112C307.55 173.052 304.075 166.423 299.799 160.783C298.598 159.08 297.143 157.572 295.483 156.312C293.806 155.052 291.719 154.462 289.63 154.657C287.277 154.979 285.197 156.579 282.82 156.783C279.682 157.042 276.873 154.869 273.758 154.759C272.492 154.771 271.243 155.053 270.094 155.586C268.945 156.119 267.924 156.89 267.097 157.85C265.461 159.785 264.245 162.04 263.527 164.47C262.294 168.156 261.622 172.006 261.534 175.891C261.495 178.088 261.283 180.841 259.243 181.641C259.397 180.026 259.213 178.396 258.704 176.856C258.195 175.315 257.371 173.897 256.285 172.691L256.238 172.644C256.238 172.424 256.238 172.22 256.238 172.001C256.177 168.437 256.827 164.898 258.148 161.588C259.47 158.279 261.438 155.265 263.937 152.724C266.435 150.182 269.415 148.164 272.703 146.786C275.99 145.408 279.519 144.699 283.083 144.699C286.647 144.699 290.176 145.408 293.463 146.786C296.751 148.164 299.731 150.182 302.229 152.724C304.728 155.265 306.696 158.279 308.017 161.588C309.339 164.898 309.989 168.437 309.928 172.001H309.92Z" fill="black"/>
<path d="M294.197 129.383C290.12 127.466 285.482 127.103 281.157 128.363C278.983 129.006 276.936 130.05 274.731 130.575C270.023 131.713 264.531 130.481 260.491 133.234C258.247 134.803 256.897 137.282 255.642 139.69L252.504 145.668C250.793 148.939 249.067 152.265 248.353 155.865C247.639 159.466 248.071 163.498 250.354 166.392C252.017 168.502 254.473 169.828 256.278 171.812C257.359 173.02 258.179 174.437 258.686 175.976C259.194 177.515 259.378 179.142 259.228 180.755C261.275 179.97 261.471 177.209 261.519 175.013C261.606 171.127 262.278 167.277 263.511 163.592C264.228 161.16 265.443 158.905 267.081 156.971C267.909 156.013 268.93 155.242 270.079 154.709C271.228 154.176 272.476 153.894 273.742 153.88C276.881 153.99 279.697 156.155 282.804 155.896C285.158 155.7 287.245 154.092 289.615 153.779C291.704 153.581 293.791 154.171 295.468 155.434C297.126 156.692 298.58 158.2 299.775 159.905C304.059 165.545 307.535 172.158 307.739 179.233C308.625 179.884 309.904 179.037 310.343 178.033C310.783 177.029 310.798 175.852 311.356 174.895C311.999 173.789 313.231 173.201 314.196 172.369C316.644 170.259 317.256 166.706 317.161 163.482C317.067 160.258 316.44 156.987 317.052 153.818C317.42 151.872 318.252 150.053 318.707 148.131C319.162 146.209 319.217 144.052 318.142 142.397C316.573 139.965 313.27 139.486 310.39 139.259C307.119 138.976 304.192 139.337 302.105 136.584C301.126 135.147 300.023 133.798 298.81 132.552C298.394 132.144 294.197 129.556 294.197 129.383Z" fill="#512E4E"/>
<path opacity="0.1" d="M208.92 294.802L200.721 279.647L198.124 303.031C198.124 303.031 199.568 313.417 199.277 315.009C198.987 316.601 205.193 330.878 205.193 330.878C205.193 330.878 225.694 367.385 234.066 369.268L262.35 349.061L254.85 339.538C254.85 339.538 252.253 338.526 251.601 339.538C251.601 339.538 237.675 315.582 236.231 313.848C234.788 312.114 235.07 308.655 235.07 308.655C235.07 308.655 232.905 306.349 233.626 304.184C234.348 302.019 229.445 294.512 229.445 294.512L233.917 290.331L208.92 294.802Z" fill="black"/>
<path d="M201.152 277.921L198.987 279.647L196.39 303.031C196.39 303.031 197.834 313.417 197.543 315.009C197.253 316.601 203.467 330.878 203.467 330.878C203.467 330.878 223.96 367.385 232.332 369.268L260.624 349.061L253.116 339.538C253.116 339.538 250.519 338.526 249.867 339.538C249.867 339.538 235.941 315.582 234.497 313.848C233.054 312.114 233.344 308.655 233.344 308.655C233.344 308.655 231.178 306.349 231.9 304.184C232.622 302.019 227.711 294.512 227.711 294.512L232.183 290.331L201.152 277.921Z" fill="white"/>
<path opacity="0.1" d="M335.529 369.527C337.098 371.433 336.109 379.991 336.109 379.991L331.778 387.16C331.778 387.16 332.037 391.788 332.053 398.025L324.772 400.299C324.114 400.505 323.416 400.55 322.737 400.431C322.058 400.312 321.417 400.033 320.869 399.616C320.32 399.199 319.878 398.657 319.581 398.035C319.285 397.413 319.141 396.729 319.162 396.04L320.417 355.556L337.404 362.051C335.96 363.055 337.545 365.518 337.545 365.518C337.545 365.518 333.944 367.62 335.529 369.527Z" fill="black"/>
<path d="M336.399 368.656C337.969 370.562 336.98 379.128 336.98 379.128L332.649 386.297C332.649 386.297 332.908 390.918 332.932 397.162L325.517 399.476C324.873 399.676 324.19 399.719 323.525 399.602C322.861 399.485 322.234 399.211 321.696 398.803C321.159 398.395 320.727 397.864 320.436 397.255C320.146 396.646 320.005 395.977 320.025 395.303L321.288 354.693L338.282 361.188C336.831 362.192 338.416 364.647 338.416 364.647C338.416 364.647 334.83 366.757 336.399 368.656Z" fill="white"/>
<path d="M342.025 349.359C342.025 349.359 340.872 356.725 337.984 357.156C335.097 357.587 333.802 369.071 330.923 368.663C328.044 368.256 329.95 357.988 330.052 355.995C330.154 354.003 326.914 345.75 329.338 343.876C331.763 342.001 339.436 343.876 339.436 343.876L342.025 349.359Z" fill="#CF6F80"/>
<path opacity="0.1" d="M348.168 292.637L353.613 281.655C353.613 281.655 355.779 290.025 355.779 294.496C355.779 298.968 358.807 299.407 358.807 299.407C358.807 299.407 362.126 303.329 360.376 306.184C358.627 309.04 357.921 316.146 357.921 316.146C357.921 316.146 358.493 329.709 355.896 331.584C353.299 333.459 352.758 337.938 352.758 337.938C352.758 337.938 347.988 346.449 348.137 348.472C348.286 350.496 341.499 364.2 341.499 364.2C341.499 364.2 344.818 347.17 325.478 339.812C325.478 339.812 325.329 334.031 326.773 332.447C328.216 330.862 330.468 330.141 329.056 322.132C327.643 314.123 328.648 304.553 328.648 302.631C328.648 300.709 332.979 288.723 332.979 288.723L348.168 292.637Z" fill="black"/>
<path d="M350.522 280.086L355.277 281.655C355.277 281.655 357.45 290.025 357.45 294.496C357.45 298.968 360.478 299.407 360.478 299.407C360.478 299.407 363.797 303.329 362.048 306.184C360.298 309.04 359.6 316.146 359.6 316.146C359.6 316.146 360.172 329.709 357.575 331.584C354.978 333.459 354.398 337.938 354.398 337.938C354.398 337.938 349.635 346.449 349.785 348.472C349.934 350.496 343.139 364.2 343.139 364.2C343.139 364.2 346.466 347.17 327.118 339.812C327.118 339.812 326.977 334.031 328.42 332.447C329.864 330.862 332.116 330.141 330.703 322.132C329.291 314.123 330.295 304.553 330.295 302.631C330.295 300.709 334.626 288.723 334.626 288.723L350.522 280.086Z" fill="white"/>
<path opacity="0.1" d="M245.505 564.73C245.505 564.73 253.084 559.969 258.059 563.428C263.033 566.888 245.505 564.73 245.505 564.73Z" fill="black"/>
<path opacity="0.1" d="M304.396 550.007C304.396 550.007 311.104 549.144 316.738 555.207C322.371 561.271 304.396 550.007 304.396 550.007Z" fill="black"/>
<g opacity="0.1">
<path opacity="0.1" d="M314.211 170.651C313.246 171.483 312.007 172.079 311.363 173.185C310.814 174.134 310.798 175.303 310.359 176.323C309.92 177.343 308.641 178.174 307.754 177.531C307.55 170.471 304.067 163.843 299.791 158.195C298.595 156.49 297.142 154.982 295.483 153.724C293.804 152.461 291.714 151.871 289.622 152.068C287.269 152.39 285.197 153.99 282.82 154.186C279.682 154.453 276.865 152.28 273.75 152.17C272.484 152.183 271.236 152.466 270.088 153C268.941 153.535 267.921 154.308 267.097 155.269C265.459 157.2 264.243 159.453 263.527 161.882C262.294 165.567 261.622 169.417 261.534 173.303C261.487 175.491 261.283 178.221 259.259 179.037C259.306 179.616 259.306 180.199 259.259 180.778C261.299 179.994 261.503 177.233 261.55 175.036C261.637 171.151 262.309 167.301 263.543 163.615C264.259 161.184 265.475 158.929 267.113 156.995C267.938 156.037 268.959 155.265 270.106 154.732C271.253 154.2 272.501 153.917 273.766 153.904C276.904 154.014 279.729 156.179 282.836 155.92C285.19 155.724 287.277 154.116 289.638 153.802C291.73 153.605 293.82 154.195 295.499 155.457C297.158 156.716 298.611 158.224 299.806 159.928C304.082 165.568 307.566 172.181 307.77 179.257C308.657 179.908 309.935 179.06 310.375 178.056C310.814 177.052 310.83 175.876 311.379 174.919C312.022 173.813 313.262 173.224 314.227 172.393C316.675 170.283 317.287 166.729 317.193 163.505C317.193 163.403 317.193 163.301 317.193 163.207C317.044 166 316.298 168.847 314.211 170.651Z" fill="black"/>
<path opacity="0.1" d="M256.293 170.095C254.489 168.11 252.025 166.784 250.37 164.682C248.976 162.821 248.179 160.581 248.086 158.258C247.84 161.161 248.65 164.055 250.37 166.408C252.025 168.518 254.489 169.844 256.293 171.828C258.026 173.769 259.066 176.23 259.251 178.825C259.371 177.246 259.171 175.658 258.663 174.158C258.155 172.658 257.349 171.276 256.293 170.095Z" fill="black"/>
<path opacity="0.1" d="M318.723 146.413C318.26 148.335 317.436 150.162 317.06 152.1C316.836 153.395 316.755 154.71 316.816 156.022C316.843 155.274 316.924 154.53 317.06 153.794C317.436 151.849 318.26 150.029 318.723 148.107C318.993 147.047 319.08 145.949 318.982 144.86C318.933 145.383 318.846 145.902 318.723 146.413Z" fill="black"/>
</g>
<path opacity="0.1" d="M104.138 596.625C146.361 596.625 180.588 591.129 180.588 584.349C180.588 577.569 146.361 572.073 104.138 572.073C61.916 572.073 27.6881 577.569 27.6881 584.349C27.6881 591.129 61.916 596.625 104.138 596.625Z" fill="#206BA4"/>
<path d="M106.602 349.178H101.682V459.916H106.602V349.178Z" fill="#535461"/>
<path d="M137.515 459.578L137.209 464.567L136.769 471.627L136.589 474.561L136.157 481.621L135.969 484.554L135.53 491.614L130.571 571.68C130.355 575.125 128.835 578.359 126.319 580.722C123.803 583.086 120.481 584.402 117.029 584.404H91.2474C87.7959 584.402 84.4746 583.086 81.9601 580.722C79.4456 578.358 77.9269 575.124 77.7133 571.68L72.7782 491.559L72.3389 484.499L72.1584 481.566L71.719 474.506L71.5386 471.572L71.0992 464.512L70.7854 459.523C70.7309 458.563 70.8732 457.602 71.2035 456.699C71.5339 455.795 72.0454 454.969 72.7066 454.271C73.3678 453.572 74.1648 453.016 75.0487 452.636C75.9326 452.257 76.8847 452.062 77.8467 452.063H130.579C131.537 452.072 132.484 452.276 133.36 452.664C134.236 453.053 135.023 453.616 135.673 454.32C136.323 455.024 136.822 455.854 137.138 456.759C137.455 457.663 137.583 458.623 137.515 459.578Z" fill="#3F3D56"/>
<path d="M137.209 464.567L136.769 471.603H71.5072L71.0679 464.567H137.209Z" fill="#9D9CB5"/>
<path d="M136.589 474.537L136.157 481.581H72.1271L71.6877 474.537H136.589Z" fill="#9D9CB5"/>
<path d="M135.969 484.523L135.537 491.559H72.7469L72.3075 484.523H135.969Z" fill="#9D9CB5"/>
<path d="M63.5594 390.682C92.2047 411.407 104.162 443.819 104.162 443.819C104.162 443.819 69.6399 442.635 40.9868 421.91C12.3337 401.186 0.400146 368.781 0.400146 368.781C0.400146 368.781 34.9063 369.958 63.5594 390.682Z" fill="#206BA4"/>
<path d="M0.376587 368.781C0.376587 368.781 36.2165 388.666 47.7107 405.131C59.2049 421.596 104.162 443.819 104.162 443.819" stroke="#535461" stroke-width="2" stroke-miterlimit="10"/>
<path d="M82.0521 348.935C97.6419 360.207 104.162 377.849 104.162 377.849C104.162 377.849 85.3709 377.206 69.7733 365.934C54.1757 354.662 47.6715 337.012 47.6715 337.012C47.6715 337.012 66.4545 337.655 82.0521 348.935Z" fill="#206BA4"/>
<path d="M47.6715 337.012C47.6715 337.012 67.1763 347.837 73.4295 356.795C79.6827 365.753 104.162 377.849 104.162 377.849" stroke="#535461" stroke-width="2" stroke-miterlimit="10"/>
<path d="M126.797 376.955C108.885 396.636 105.095 422.357 105.095 422.357C105.095 422.357 130.351 416.16 148.248 396.471C166.144 376.782 169.949 351.069 169.949 351.069C169.949 351.069 144.709 357.274 126.797 376.955Z" fill="#206BA4"/>
<path d="M169.965 351.077C169.965 351.077 146.631 371.252 140.7 385.152C134.769 399.052 105.095 422.357 105.095 422.357" stroke="#535461" stroke-width="2" stroke-miterlimit="10"/>
<path d="M784.328 370.029C784.328 370.029 771.375 305.596 776.333 297.579C776.333 297.579 776.514 290.127 776.215 280.628C776.215 280.267 776.215 279.906 776.215 279.537C777.088 280.119 777.997 280.643 778.938 281.106C783.507 283.453 788.752 284.13 793.767 283.02L789.844 278.651C788.902 277.608 787.921 276.478 787.717 275.098C787.513 273.717 788.078 272.485 788.565 271.254C792.292 261.841 792.488 250.004 785.309 242.818C779.244 236.778 777.769 228.981 771.186 223.467C766.377 219.427 763.733 213.505 761.238 207.778C759.127 202.938 757.001 198.059 755.793 192.929C754.851 188.921 754.475 184.771 753.18 180.857C751.885 176.943 749.461 173.138 745.671 171.389C744.322 170.769 742.823 170.416 741.592 169.593C739.975 168.502 739.003 166.729 737.833 165.176C731.894 157.332 712.005 161.952 702.59 165.137C700.03 165.939 697.66 167.252 695.623 168.996L695.709 168.855C695.78 168.738 695.866 168.62 695.944 168.502C694.914 169.335 694.024 170.328 693.308 171.444C691.935 173.617 691.362 176.15 690.217 178.504C688.836 181.288 681.155 189.062 684.458 192.192C684.689 192.402 684.955 192.572 685.243 192.694C686.483 193.21 687.848 193.346 689.166 193.086L689.024 193.423C687.896 196.185 687.318 199.14 687.322 202.123C687.322 215.011 697.953 225.459 711.079 225.459C713.547 225.462 716 225.083 718.352 224.337C718.407 224.636 718.454 224.934 718.509 225.232C718.509 225.349 718.548 225.467 718.564 225.585L718.148 226.165C718.127 226.129 718.104 226.095 718.078 226.063L705.76 243.273C703.877 244.599 693.034 252.443 692.422 258.327C691.778 264.767 691.135 272.305 691.135 272.305L691.049 273.921C690.51 274.371 689.881 274.698 689.203 274.881C688.526 275.064 687.817 275.098 687.126 274.98C683.281 274.352 683.281 289.1 683.281 289.1C683.281 289.1 680.723 291.453 678.966 289.413C677.208 287.374 672.564 294.285 672.564 294.285L643.455 295.54L642.789 295.579L641.219 290.723C641.051 290.211 640.686 289.786 640.206 289.541C639.726 289.296 639.168 289.25 638.654 289.413C638.532 289.453 638.414 289.503 638.301 289.562L638.191 289.625L637.987 289.766L637.885 289.86C637.829 289.911 637.776 289.966 637.728 290.025L637.634 290.135L637.587 290.182C637.406 290.432 637.286 290.722 637.237 291.027C637.188 291.332 637.211 291.645 637.304 291.939L638.654 296.104C633.036 297.234 627.293 300.419 631.977 309.189L608.235 304.804L615.916 311.252L655.569 319.433C655.044 320.374 655.389 321.739 657.029 323.661C664.09 331.953 676.957 334.204 682.136 334.784C683.503 337.843 685.211 340.737 687.228 343.413L686.78 351.673C686.78 351.673 673.67 414.631 671.269 417.823C672.481 416.45 673.59 414.99 674.588 413.454C670.783 426.389 665.463 444.094 664.067 446.745C661.823 450.981 659.744 468.121 662.301 469.219C663.086 469.556 665.33 469.392 668.531 469.148V470.568L668.39 524.372C668.39 524.372 669.033 557.372 667.268 560.518C665.502 563.664 665.032 570.261 665.032 570.261C665.032 570.261 657.97 583.274 652.376 588.506C652.338 588.547 652.296 588.584 652.251 588.616L652.078 587.392C652.078 587.392 645.354 595.88 630.478 595.401C630.478 595.401 621.526 601.222 634.802 601.536C648.077 601.849 665.032 601.065 665.032 601.065C665.032 601.065 676.871 583.023 686.788 585.376V599.049H689.825V585.157C691.233 584.23 692.438 583.027 693.367 581.621C694.296 580.214 694.93 578.634 695.23 576.975C695.49 575.266 695.3 573.518 694.678 571.904C694.056 570.291 693.024 568.867 691.684 567.774C691.082 567.23 690.599 566.567 690.265 565.827C689.932 565.087 689.755 564.287 689.746 563.475L689.636 563.569C689.636 563.295 689.566 563.013 689.534 562.722C688.663 555.662 687.573 541.096 691.425 530.318C696.705 515.539 698.306 494.956 694.461 482.703C693.221 478.787 692.202 474.803 691.409 470.772C691.315 470.262 691.229 469.776 691.151 469.321C693.778 469.676 696.381 470.2 698.941 470.89C707.847 473.345 727.328 473.8 743.961 473.667C744 474.122 744.047 474.6 744.102 475.079C744.399 478.405 745.019 481.694 745.954 484.9C748.041 491.175 748.998 518.842 748.998 518.842C748.998 518.842 751.689 541.59 750.222 550.846C749.438 555.992 748.653 561.161 748.206 566.354V566.456C748.206 566.456 743.796 579.007 740.572 585.824C740.493 585.996 740.407 586.169 740.328 586.333C739.469 586.412 738.622 586.599 737.81 586.89C737.81 586.89 733.487 595.519 729.179 596.947C724.872 598.374 726.3 603.073 736.052 601.347C745.805 599.622 760.532 598.21 760.532 598.21L761.167 589.408L764.164 585.659L763.38 594.437L766.573 593.809L766.149 583.133L771.053 576.999C771.053 576.999 776.976 571.727 768.173 561.357V561.585C768.079 561.436 767.993 561.279 767.891 561.13V561.083C766.432 558.824 765.27 554.611 767.397 547.136C771.241 533.628 773.477 521.367 773.477 521.367C773.477 521.367 782.061 488.524 771.743 472.984H772.198C771.141 470.797 770.394 468.474 769.978 466.081C769.926 465.799 769.879 465.509 769.837 465.211C777.471 464.771 784.964 463.391 791.076 460.41C791.052 460.378 787.372 382.438 784.328 370.029ZM687.408 315.668V315.825L685.839 315.903L687.408 315.668ZM682.026 316.413C681.768 316.47 681.526 316.586 681.32 316.75C680.645 317.705 680.221 318.813 680.088 319.974L677.64 319.425C677.64 319.425 675.922 319.057 673.45 318.641L672.281 317.464C675.498 317.198 678.84 316.805 682.026 316.413Z" fill="url(#paint1_linear_484_191)"/>
<path d="M763.019 583.243L762.085 594.358L765.215 593.73L764.745 581.674L763.019 583.243Z" fill="#1D2366"/>
<path d="M691.598 530.467C687.824 541.213 688.891 555.717 689.738 562.761C690.052 565.366 690.342 566.95 690.342 566.95C690.342 566.95 684.701 579.799 684.23 580.286C683.76 580.772 667.629 590.616 667.629 590.616L656.354 597.198C656.354 597.198 644.915 592.185 650.399 590.459C651.52 590.01 652.529 589.322 653.357 588.444C658.849 583.227 665.746 570.261 665.746 570.261C665.746 570.261 666.216 563.679 667.942 560.549C669.668 557.42 669.041 524.529 669.041 524.529L669.174 470.913V463.924L690.633 464.081C690.768 466.454 691.077 468.813 691.558 471.141C692.329 475.158 693.327 479.129 694.548 483.033C698.329 495.262 696.76 515.743 691.598 530.467Z" fill="#FFB0B1"/>
<path opacity="0.1" d="M690.342 566.95C690.342 566.95 684.701 579.799 684.23 580.285C683.76 580.772 667.629 590.616 667.629 590.616L656.354 597.198C656.354 597.198 644.915 592.185 650.399 590.459C651.52 590.01 652.529 589.322 653.357 588.443L653.843 591.871L657.602 591.715L689.77 562.777C690.052 565.366 690.342 566.95 690.342 566.95Z" fill="black"/>
<path d="M689.95 563.507L657.602 592.64L653.843 592.797L653.059 587.306C653.059 587.306 646.484 595.762 631.875 595.291C631.875 595.291 623.103 601.088 636.104 601.402C649.104 601.716 665.706 600.931 665.706 600.931C665.706 600.931 677.303 582.89 687.008 585.243V598.868H689.989V585.117C691.375 584.185 692.559 582.981 693.467 581.579C694.376 580.177 694.992 578.606 695.277 576.959C695.536 575.264 695.353 573.53 694.747 571.926C694.141 570.321 693.132 568.899 691.817 567.797C691.23 567.247 690.762 566.583 690.441 565.845C690.12 565.107 689.953 564.311 689.95 563.507Z" fill="#1D2366"/>
<path d="M766 547.222C763.913 554.674 765.051 558.871 766.479 561.122V561.169C768.31 563.949 769.584 567.058 770.229 570.323L770.354 571.029L755.636 592.483L747.648 595.621C747.648 595.621 734.805 591.236 737.151 589.981C737.739 589.675 738.657 588.043 739.708 585.792C742.847 579.007 747.178 566.488 747.178 566.488V566.386C747.633 561.216 748.355 556.063 749.155 550.932C750.591 541.7 747.954 519.038 747.954 519.038C747.954 519.038 747.013 491.481 744.973 485.213C744.052 482.027 743.44 478.759 743.145 475.455C742.721 471.533 742.627 468.301 742.627 468.301C742.627 468.301 751.085 456.535 766.588 469.243C767.828 470.256 768.919 471.439 769.829 472.757C780.538 487.99 771.916 521.548 771.916 521.548C771.916 521.548 769.758 533.754 766 547.222Z" fill="#FFB0B1"/>
<path opacity="0.1" d="M770.378 571.029L755.659 592.483L747.672 595.621C747.672 595.621 734.829 591.236 737.174 589.981C737.763 589.675 738.681 588.043 739.732 585.792C745.169 585.745 747.986 590.922 747.986 590.922L754.875 589.824C754.875 589.824 763.96 571.97 766 570.88C768.04 569.79 766.314 562.73 766.314 562.73V560.934C766.369 560.996 766.416 561.067 766.479 561.13V561.177C768.31 563.956 769.584 567.066 770.229 570.331L770.378 571.029Z" fill="black"/>
<path d="M748.457 591.385C748.457 591.385 744.534 584.184 737.017 586.843C737.017 586.843 732.788 595.472 728.56 596.868C724.331 598.264 725.743 602.971 735.299 601.253C744.855 599.535 759.26 598.115 759.26 598.115L759.888 589.338L769.601 576.967C769.601 576.967 775.392 571.72 766.777 561.389V563.185C766.777 563.185 768.503 570.245 766.463 571.335C764.423 572.426 755.369 590.287 755.369 590.287L748.457 591.385Z" fill="#1D2366"/>
<path opacity="0.1" d="M690.656 464.065C690.792 466.438 691.101 468.798 691.582 471.125C682.748 469.831 674.549 470.474 669.174 470.898V463.908L690.656 464.065Z" fill="black"/>
<path opacity="0.1" d="M770.7 474.71C770.7 474.71 758.146 475.322 743.177 475.447C742.753 471.525 742.659 468.293 742.659 468.293C742.659 468.293 751.117 456.527 766.62 469.235C767.86 470.248 768.951 471.431 769.86 472.749C770.103 473.418 770.384 474.072 770.7 474.71Z" fill="black"/>
<path d="M770.7 473.298C770.7 473.298 715.716 475.957 698.957 471.258C682.198 466.56 665.589 470.631 663.086 469.541C660.583 468.45 662.615 451.373 664.812 447.145C667.009 442.917 679.06 400.158 679.06 400.158L690.656 339.711L702.872 336.345L703.735 336.102L725.021 330.235L740.619 325.928C740.619 325.928 771.633 446.988 768.974 455.915C768.008 459.333 767.852 462.93 768.519 466.419C768.925 468.801 769.659 471.116 770.7 473.298Z" fill="#1D2366"/>
<path d="M650.234 298.371C650.234 298.371 639.25 310.138 647.567 316.695C655.883 323.253 661.352 317.323 661.352 317.323L650.234 298.371Z" fill="#C7DAF5"/>
<path opacity="0.1" d="M650.234 298.371C650.234 298.371 639.25 310.138 647.567 316.695C655.883 323.253 661.352 317.323 661.352 317.323L650.234 298.371Z" fill="black"/>
<path d="M738.979 221.011C738.979 221.011 737.692 222.235 735.754 224.039C732.992 226.62 728.905 230.393 725.28 233.554C720.259 237.924 716.116 241.132 717.599 238.394C719.082 235.657 718.799 230.887 718.062 226.424C718.007 226.126 717.96 225.828 717.905 225.538C717.294 222.26 716.485 219.022 715.48 215.842C715.48 215.842 723.593 205.362 728.081 201.228C729.752 199.659 730.921 199.016 730.992 200.107C731.07 201.573 732.169 204.813 733.534 208.249C733.573 208.359 733.612 208.461 733.659 208.57C734.57 210.924 735.597 213.34 736.5 215.426C737.88 218.627 738.979 221.011 738.979 221.011Z" fill="#FFB0B1"/>
<path opacity="0.1" d="M733.659 208.57C732.897 212.67 731.047 216.49 728.303 219.63C725.56 222.771 722.023 225.117 718.062 226.424C717.438 222.843 716.576 219.308 715.48 215.842C715.48 215.842 730.756 196.114 730.992 200.106C731.047 201.62 732.239 204.978 733.659 208.57Z" fill="black"/>
<path opacity="0.1" d="M716.54 231.695L718.517 228.911C718.517 228.911 719.827 236.896 724.645 233.374C729.462 229.852 729.697 259.88 729.697 259.88L724.527 337.169L687.165 334.933L688.224 297.587L692.453 278.761L702.911 251.392L709.133 242.348L716.54 231.695Z" fill="black"/>
<path d="M729.697 260.358L724.99 330.242L724.495 337.647L703.665 336.4L702.88 336.353L687.188 335.412L688.247 298.058L692.476 279.231L702.935 251.863L709.157 242.818L716.563 232.127L718.54 229.35C718.54 229.35 719.851 237.335 724.668 233.813L724.77 233.743C729.477 230.762 729.697 260.358 729.697 260.358Z" fill="#1D2366"/>
<path d="M693.002 272.689C693.002 272.689 691.127 276.611 687.361 275.976C683.595 275.341 683.603 290.096 683.603 290.096C683.603 290.096 681.1 292.449 679.374 290.409C677.648 288.37 673.097 295.265 673.097 295.265L644.585 296.52C644.585 296.52 657.272 302.317 654.785 319.857C654.785 319.857 697.859 317.19 699.271 313.119C700.683 309.047 693.002 272.689 693.002 272.689Z" fill="white"/>
<path opacity="0.03" d="M693.002 272.689C693.002 272.689 691.127 276.611 687.361 275.976C683.595 275.341 683.603 290.096 683.603 290.096C683.603 290.096 681.1 292.449 679.374 290.409C677.648 288.37 673.097 295.265 673.097 295.265L644.585 296.52C644.585 296.52 657.272 302.317 654.785 319.857C654.785 319.857 697.859 317.19 699.271 313.119C700.683 309.047 693.002 272.689 693.002 272.689Z" fill="black"/>
<path d="M610.142 305.737L617.658 312.154L679.531 325.152L671.857 317.323L610.142 305.737Z" fill="white"/>
<path d="M716.657 234.166C715.63 235.735 712.687 243.768 710.232 250.78C708.184 256.624 706.473 261.762 706.473 261.762C706.473 261.762 702.48 287.758 700.44 292.457C698.4 297.156 699.506 315.48 699.506 315.48L691.904 360.733C691.904 360.733 688.459 384.07 683.14 398.009C677.891 411.729 672.046 418.161 671.865 418.365C674.219 415.18 687.047 352.473 687.047 352.473L691.284 273.387C691.284 273.387 691.904 265.873 692.531 259.448C693.159 253.024 705.869 244.254 705.869 244.254L718.125 226.832C719.356 228.479 718.533 231.35 716.657 234.166Z" fill="white"/>
<path d="M684.701 335.804C684.701 335.804 666.656 335.02 657.915 324.524C649.175 314.028 678.119 320.335 678.119 320.335L685.643 322.061L684.701 335.804Z" fill="#FFB0B1"/>
<path opacity="0.1" d="M768.974 455.923C768.008 459.341 767.852 462.937 768.519 466.426C748.833 467.823 727.775 462.504 727.775 462.504C723.852 466.113 713.519 471.431 713.519 471.431L707.886 401.617C704.285 392.204 702.872 342.887 702.872 342.887C702.872 342.887 703.194 340.307 703.657 336.439C703.657 336.345 703.657 336.243 703.696 336.149C705.101 325.348 707.886 305.07 709.251 302.333C711.134 298.567 703.461 288.55 703.461 288.55L706.952 258.781L707.376 255.189C714.735 251.902 720.376 241.406 720.376 241.406L724.707 233.821C729.415 230.801 729.658 260.397 729.658 260.397L724.951 330.282L740.548 325.975C740.548 325.975 771.633 446.996 768.974 455.923Z" fill="black"/>
<path d="M789.177 460.747C767.718 471.4 728.717 461.532 728.717 461.532C724.794 465.14 714.461 470.458 714.461 470.458L708.819 400.645C705.226 391.232 703.814 341.915 703.814 341.915C703.814 341.915 708.349 305.117 710.232 301.36C710.781 300.262 710.514 298.63 709.863 296.873C706.661 288.51 705.484 279.508 706.426 270.603L707.933 257.809L708.349 254.224C715.716 250.929 721.357 240.434 721.357 240.434L725.28 233.562L732.498 220.902L735.919 214.909L736.5 215.434L740.933 219.451C740.933 219.451 742.816 221.019 745.64 223.373C751.783 228.55 762.399 237.665 767.875 243.242C772.693 248.153 774.215 267.253 774.654 281.632C774.944 291.1 774.772 298.52 774.772 298.52C769.915 306.514 782.618 370.687 782.618 370.687C785.576 383.089 789.177 460.747 789.177 460.747Z" fill="white"/>
<path opacity="0.03" d="M747.986 240.277C747.986 240.277 733.259 268.304 734.97 278.957C736.68 289.609 741.545 301.666 739.199 304.482C738.393 305.549 737.351 306.415 736.154 307.012C734.958 307.61 733.639 307.922 732.302 307.926C729.948 308.082 723.672 312.467 723.672 312.938C723.672 313.409 717.874 313.409 712.687 315.605C707.501 317.801 699.844 319.049 699.844 319.049C699.844 319.049 684.937 318.578 683.548 319.99C682.159 321.402 680.731 329.85 683.705 336.588C686.678 343.327 689.981 348.355 692.476 349.273C694.971 350.19 710.804 344.888 723.648 343.633C736.492 342.377 750.434 332.203 750.434 332.203C750.434 332.203 765.788 326.712 768.479 317.48C771.17 308.247 765.192 257.503 765.192 257.503C765.192 257.503 760.673 233.852 747.986 240.277Z" fill="black"/>
<path opacity="0.03" d="M746.103 237.924C746.103 237.924 731.376 265.959 733.102 276.604C734.828 287.248 739.677 299.313 737.323 302.137C736.52 303.205 735.48 304.072 734.285 304.669C733.089 305.267 731.771 305.579 730.435 305.58C728.081 305.737 721.804 310.122 721.804 310.593C721.804 311.063 716.006 311.063 710.82 313.252C705.634 315.44 697.976 316.696 697.976 316.696C697.976 316.696 683.069 316.225 681.688 317.637C680.307 319.049 678.864 327.505 681.845 334.235C684.827 340.966 688.122 346.002 690.617 346.919C693.112 347.837 708.945 342.534 721.789 341.287C734.632 340.04 748.574 329.85 748.574 329.85C748.574 329.85 763.921 324.359 766.581 315.135C769.24 305.91 763.293 255.15 763.293 255.15C763.293 255.15 758.79 231.507 746.103 237.924Z" fill="black"/>
<path d="M747.523 238.865C747.523 238.865 732.796 266.9 734.522 277.545C736.248 288.19 741.097 300.254 738.751 303.07C737.948 304.141 736.907 305.01 735.71 305.609C734.513 306.208 733.193 306.52 731.855 306.521C729.501 306.678 723.224 311.063 723.224 311.526C723.224 311.989 717.434 311.997 712.24 314.193C707.046 316.39 699.396 317.637 699.396 317.637C699.396 317.637 684.489 317.166 683.101 318.578C681.712 319.99 680.284 328.446 683.258 335.177C686.231 341.907 689.534 346.943 692.029 347.861C694.524 348.778 710.357 343.476 723.201 342.221C736.044 340.966 749.987 330.792 749.987 330.792C749.987 330.792 765.341 325.301 768.032 316.068C770.723 306.835 764.784 256.091 764.784 256.091C764.784 256.091 760.202 232.48 747.523 238.865Z" fill="white"/>
<path opacity="0.1" d="M747.201 314.06C747.201 314.06 735.433 311.706 739.528 315.629C743.624 319.551 743.6 322.987 748.614 322.83C753.627 322.673 747.201 314.06 747.201 314.06Z" fill="black"/>
<path opacity="0.1" d="M767.091 398.448C767.091 398.448 761.771 402.049 771.947 410.348C782.123 418.647 767.091 398.448 767.091 398.448Z" fill="black"/>
<path opacity="0.1" d="M756.938 428.044C756.938 428.515 755.055 445.302 762.101 449.498C769.146 453.695 756.938 428.044 756.938 428.044Z" fill="black"/>
<path d="M645.072 296.481C639.391 296.677 627.12 298.411 633.483 310.279C639.109 320.782 648.563 313.762 653.883 308.435C652.585 303.47 649.431 299.191 645.072 296.481Z" fill="#FFB0B1"/>
<path d="M653.953 308.341L654.189 308.098L653.953 308.341Z" fill="#FFB0B1"/>
<path opacity="0.1" d="M745.64 223.851C739.614 227.969 734.562 231.444 733.573 232.166C730.874 234.166 725.727 245.909 722.409 251.902C719.764 256.726 711.173 257.966 707.933 258.272L708.349 254.687C715.716 251.392 721.357 240.897 721.357 240.897L735.919 215.371L740.933 219.929C740.933 219.929 742.816 221.498 745.64 223.851Z" fill="black"/>
<path d="M745.64 223.38C739.614 227.499 734.562 230.974 733.573 231.703C730.874 233.696 725.727 245.438 722.409 251.431C719.764 256.256 711.173 257.495 707.933 257.801L708.349 254.216C715.716 250.922 721.357 240.426 721.357 240.426L735.919 214.901L740.933 219.443C740.933 219.443 742.816 220.996 745.64 223.38Z" fill="#DCE7FF"/>
<path d="M734.044 203.393C734.047 208.102 732.619 212.701 729.948 216.579C726.794 221.165 722.101 224.469 716.719 225.891C711.337 227.313 705.623 226.759 700.615 224.33C695.607 221.9 691.635 217.756 689.422 212.65C687.208 207.543 686.898 201.813 688.549 196.498C690.2 191.182 693.702 186.635 698.419 183.68C703.137 180.726 708.757 179.56 714.261 180.394C719.765 181.228 724.787 184.007 728.417 188.227C732.047 192.447 734.043 197.828 734.044 203.393Z" fill="#FFB0B1"/>
<path opacity="0.1" d="M774.654 281.64C771.468 279.68 768.873 276.893 767.146 273.576C765.835 270.987 764.964 267.998 762.728 266.163C760.712 264.516 758.021 264.116 755.51 263.378C747.256 260.939 740.336 253.408 740.077 244.811C739.952 240.763 741.215 236.723 740.642 232.715C740.317 230.446 739.414 228.299 738.022 226.479C737.33 225.608 736.572 224.793 735.754 224.039C734.656 223.004 733.502 222 732.498 220.902C731.865 220.222 731.313 219.472 730.851 218.666C730.477 218.007 730.175 217.31 729.948 216.587C728.379 211.787 729.807 206.092 728.081 201.236L727.987 200.969C727.336 199.244 726.01 197.518 724.166 197.385C722.322 197.251 720.745 198.781 718.988 199.463C715.308 200.891 711.338 198.459 708.27 195.981C705.202 193.502 701.742 190.67 697.843 191.219C695.262 191.588 693.222 193.345 690.844 194.255C690.308 194.463 689.754 194.623 689.189 194.733C691.201 189.717 694.897 185.558 699.643 182.97C704.389 180.383 709.888 179.528 715.195 180.554C720.503 181.58 725.287 184.421 728.727 188.59C732.167 192.76 734.047 197.997 734.044 203.401C734.046 205.033 733.875 206.661 733.534 208.257C733.573 208.367 733.612 208.469 733.659 208.578C734.569 210.932 735.597 213.348 736.5 215.434L740.932 219.45C740.932 219.45 742.815 221.019 745.64 223.373C751.783 228.55 762.399 237.665 767.875 243.242C772.692 248.168 774.199 267.261 774.654 281.64Z" fill="black"/>
<path d="M690.57 179.923C691.692 177.641 692.249 175.083 693.591 172.918C695.56 169.781 698.996 167.773 702.527 166.557C711.746 163.38 731.227 158.767 737.049 166.557C738.194 168.126 739.144 169.867 740.729 170.949C741.937 171.773 743.396 172.126 744.722 172.746C748.433 174.487 750.803 178.284 752.066 182.159C753.329 186.034 753.706 190.191 754.631 194.184C755.816 199.306 757.895 204.162 759.967 208.986C762.407 214.681 764.996 220.588 769.703 224.612C776.129 230.103 777.549 237.877 783.512 243.901C790.573 251.055 790.346 262.86 786.705 272.234C786.227 273.466 785.685 274.752 785.874 276.062C786.062 277.372 787.035 278.565 787.953 279.608L791.813 283.961C782.68 286.166 772.347 281.396 768.095 273.027C766.785 270.438 765.914 267.457 763.67 265.614C761.661 263.966 758.962 263.574 756.459 262.837C748.206 260.389 741.286 252.851 741.027 244.254C740.901 240.214 742.164 236.174 741.592 232.174C741.273 229.89 740.367 227.728 738.963 225.898C736.806 223.082 733.55 221.192 731.792 218.054C728.818 212.806 731.078 205.99 728.936 200.358C728.277 198.632 726.959 196.906 725.115 196.773C723.271 196.639 721.694 198.169 719.929 198.851C716.257 200.279 712.287 197.855 709.219 195.369C706.152 192.882 702.692 190.058 698.784 190.615C696.203 190.976 694.171 192.733 691.794 193.651C690.036 194.325 686.474 194.929 684.936 193.447C681.688 190.458 689.212 182.716 690.57 179.923Z" fill="#591D4B"/>
<path opacity="0.1" d="M770.276 270.438C768.958 267.849 768.095 264.869 765.851 263.033C763.842 261.386 761.144 260.986 758.633 260.248C750.387 257.809 743.467 250.27 743.2 241.673C743.074 237.633 744.338 233.586 743.773 229.585C743.444 227.316 742.539 225.169 741.144 223.349C738.979 220.533 735.723 218.642 733.973 215.505C731 210.265 733.259 203.448 731.11 197.808C730.458 196.09 729.132 194.365 727.296 194.223C725.46 194.082 723.868 195.628 722.11 196.31C718.438 197.738 714.461 195.306 711.401 192.827C708.341 190.348 704.865 187.517 700.966 188.066C698.384 188.434 696.344 190.191 693.975 191.101C692.218 191.776 688.648 192.388 687.11 190.905C683.877 187.768 691.402 180.041 692.751 177.264C693.873 174.974 694.43 172.424 695.78 170.259C695.85 170.142 695.929 170.024 696.007 169.906C694.998 170.742 694.127 171.732 693.426 172.84C692.084 175.005 691.527 177.547 690.405 179.845C689.048 182.622 681.524 190.372 684.764 193.486C686.333 194.976 689.864 194.365 691.621 193.69C693.975 192.772 696.031 191.015 698.612 190.654C702.535 190.097 705.987 192.929 709.047 195.408C712.107 197.887 716.108 200.318 719.764 198.891C721.522 198.208 723.06 196.671 724.943 196.812C726.826 196.953 728.081 198.671 728.764 200.397C730.906 206.029 728.646 212.846 731.62 218.093C733.377 221.176 736.633 223.106 738.791 225.938C740.195 227.767 741.1 229.929 741.419 232.213C741.992 236.214 740.729 240.253 740.854 244.293C741.113 252.922 748.033 260.429 756.287 262.876C758.774 263.614 761.489 264.006 763.497 265.653C765.749 267.496 766.636 270.477 767.922 273.066C772.175 281.436 782.508 286.205 791.64 284.001L789.82 281.946C781.904 282.063 773.893 277.561 770.276 270.438Z" fill="black"/>
<path opacity="0.1" d="M716.187 234.637C715.159 236.206 712.217 244.238 709.761 251.251C707.462 250.357 705.375 244.654 705.375 244.654L717.63 227.224C718.886 228.95 718.062 231.813 716.187 234.637Z" fill="black"/>
<path d="M716.657 234.166C715.63 235.735 712.687 243.768 710.232 250.78C707.933 249.894 705.846 244.183 705.846 244.183L718.101 226.761C719.356 228.479 718.533 231.35 716.657 234.166Z" fill="#DCE7FF"/>
<path d="M645.401 314.303L638.607 292.88C638.526 292.63 638.496 292.365 638.518 292.103C638.54 291.84 638.614 291.585 638.735 291.351C638.856 291.117 639.022 290.909 639.223 290.74C639.425 290.57 639.658 290.442 639.909 290.362C640.415 290.205 640.962 290.253 641.433 290.497C641.903 290.741 642.258 291.16 642.42 291.665L649.214 313.064L648.54 317.543L645.401 314.303Z" fill="#BE8B87"/>
<path opacity="0.1" d="M639.25 290.998C639.757 290.838 640.306 290.885 640.778 291.129C641.25 291.373 641.607 291.794 641.769 292.3L648.563 313.699L648.053 317.056L648.547 317.574L649.222 313.095L642.388 291.696C642.226 291.192 641.871 290.772 641.401 290.528C640.931 290.284 640.383 290.236 639.878 290.394C639.452 290.532 639.085 290.808 638.834 291.178C638.968 291.107 639.107 291.046 639.25 290.998Z" fill="white"/>
<path d="M645.401 314.303L649.214 313.095L648.657 316.766L648.539 317.574L647.425 316.413L645.401 314.303Z" fill="#EFC8C4"/>
<path d="M647.426 316.413C647.492 316.329 647.575 316.26 647.669 316.209C647.724 316.174 647.788 316.156 647.853 316.156C647.918 316.156 647.982 316.174 648.038 316.209C648.091 316.274 648.136 316.345 648.171 316.421C648.223 316.507 648.293 316.581 648.378 316.637C648.462 316.693 648.557 316.729 648.657 316.743L648.54 317.527L647.426 316.413Z" fill="#727A9C"/>
<path d="M638.568 300.489C638.568 300.489 652.196 300.411 648.987 306.208C645.778 312.005 640.764 312.703 640.764 312.703L638.568 300.489Z" fill="#FFB0B1"/>
<path d="M553.809 40.3351H553.22C529.808 40.3351 509.103 52.7211 497.193 70.9982C485.283 52.7211 464.577 40.3351 441.165 40.3351H440.577C423.007 40.5025 406.213 47.5957 393.844 60.0733C381.476 72.5509 374.532 89.4046 374.523 106.972C374.523 128.787 384.079 159.74 402.713 185.21C438.215 233.743 497.193 276.204 497.193 276.204C497.193 276.204 556.17 233.75 591.665 185.21C610.307 159.74 619.855 128.787 619.855 106.972C619.846 89.406 612.903 72.5535 600.536 60.0761C588.169 47.5987 571.377 40.5045 553.809 40.3351ZM545.39 188.944C542.724 188.934 540.123 188.118 537.928 186.603C535.734 185.089 534.05 182.946 533.095 180.457H519.098C518.177 180.451 517.28 180.158 516.533 179.618C515.786 179.078 515.226 178.318 514.932 177.445L510.633 164.494L497.028 212.022C496.763 212.937 496.208 213.741 495.447 214.314C494.686 214.887 493.76 215.197 492.807 215.199H492.532C491.538 215.151 490.591 214.763 489.848 214.101C489.106 213.438 488.613 212.541 488.452 211.559L474.432 127.249L464.185 177.139C463.95 178.086 463.405 178.928 462.635 179.53C461.866 180.131 460.917 180.457 459.941 180.457H440.224C439.633 180.482 439.043 180.387 438.489 180.178C437.936 179.969 437.43 179.65 437.003 179.241C436.576 178.832 436.237 178.341 436.004 177.797C435.772 177.253 435.653 176.667 435.653 176.076C435.653 175.484 435.772 174.899 436.004 174.355C436.237 173.811 436.576 173.32 437.003 172.91C437.43 172.501 437.936 172.182 438.489 171.973C439.043 171.764 439.633 171.67 440.224 171.695H456.488L471.003 104.619C471.241 103.627 471.817 102.749 472.631 102.134C473.445 101.52 474.448 101.207 475.467 101.25C476.486 101.292 477.459 101.688 478.219 102.368C478.979 103.048 479.479 103.971 479.634 104.979L493.952 190.984L506.145 148.46C506.399 147.564 506.936 146.775 507.675 146.21C508.415 145.644 509.317 145.333 510.248 145.322H510.335C511.257 145.323 512.155 145.614 512.902 146.155C513.649 146.696 514.205 147.459 514.493 148.335L522.268 171.718H532.923C533.68 169.417 535.059 167.37 536.907 165.803C538.754 164.236 540.999 163.21 543.393 162.838C545.788 162.466 548.238 162.762 550.474 163.694C552.711 164.627 554.646 166.159 556.066 168.121C557.487 170.084 558.337 172.401 558.524 174.816C558.711 177.231 558.226 179.651 557.124 181.808C556.022 183.966 554.345 185.777 552.279 187.041C550.212 188.306 547.836 188.976 545.413 188.976L545.39 188.944Z" fill="#206BA4"/>
</g>
<defs>
<linearGradient id="paint0_linear_484_191" x1="279.572" y1="607.827" x2="279.572" y2="125.139" gradientUnits="userSpaceOnUse">
<stop stop-color="#808080" stop-opacity="0.25"/>
<stop offset="0.54" stop-color="#808080" stop-opacity="0.12"/>
<stop offset="1" stop-color="#808080" stop-opacity="0.1"/>
</linearGradient>
<linearGradient id="paint1_linear_484_191" x1="700.974" y1="601.724" x2="700.974" y2="160.878" gradientUnits="userSpaceOnUse">
<stop stop-color="#808080" stop-opacity="0.25"/>
<stop offset="0.54" stop-color="#808080" stop-opacity="0.12"/>
<stop offset="1" stop-color="#808080" stop-opacity="0.1"/>
</linearGradient>
<clipPath id="clip0_484_191">
<rect width="867" height="614" fill="white"/>
</clipPath>
</defs>
</svg>
